<mxfile host="app.diagrams.net" agent="Mozilla/5.0 (X11; Ubuntu; Linux x86_64; rv:138.0) Gecko/20100101 Firefox/138.0" version="27.0.9">
  <diagram name="Page-1" id="WZtxArUw21AEg8nsX3O_">
    <mxGraphModel dx="2210" dy="1895" grid="1" gridSize="10" guides="1" tooltips="1" connect="1" arrows="1" fold="1" page="1" pageScale="1" pageWidth="850" pageHeight="1100" math="0" shadow="0">
      <root>
        <mxCell id="Geku6nf0btogOaxhjyzA-0" />
        <mxCell id="Geku6nf0btogOaxhjyzA-1" parent="Geku6nf0btogOaxhjyzA-0" />
        <mxCell id="yFrAFG5AL53cfiDgzdC0-0" value="&lt;font style=&quot;font-size: 9px;&quot;&gt;Command&lt;/font&gt;&lt;div&gt;&lt;font style=&quot;font-size: 7px;&quot;&gt;execute&lt;/font&gt;&lt;/div&gt;&lt;div&gt;&lt;font style=&quot;font-size: 7px;&quot;&gt;undo&lt;/font&gt;&lt;/div&gt;&lt;div&gt;&lt;font style=&quot;font-size: 7px;&quot;&gt;getName&lt;/font&gt;&lt;/div&gt;" style="whiteSpace=wrap;html=1;aspect=fixed;" parent="Geku6nf0btogOaxhjyzA-1" vertex="1">
          <mxGeometry x="1040" y="315" width="80" height="80" as="geometry" />
        </mxCell>
        <mxCell id="yFrAFG5AL53cfiDgzdC0-1" value="&lt;font style=&quot;font-size: 9px;&quot;&gt;replaceText&lt;/font&gt;&lt;div&gt;&lt;span style=&quot;font-size: 7px;&quot;&gt;activeDocument(inj)&lt;/span&gt;&lt;font size=&quot;1&quot;&gt;&lt;br&gt;&lt;/font&gt;&lt;div&gt;&lt;font style=&quot;&quot;&gt;&lt;font style=&quot;font-size: 7px;&quot;&gt;IO(inj)&lt;/font&gt;&lt;/font&gt;&lt;div&gt;&lt;div&gt;&lt;font style=&quot;font-size: 7px;&quot;&gt;doc.searchStr()&lt;/font&gt;&lt;/div&gt;&lt;div&gt;&lt;font style=&quot;font-size: 7px;&quot;&gt;doc.swapStr()&lt;/font&gt;&lt;/div&gt;&lt;/div&gt;&lt;/div&gt;&lt;/div&gt;" style="rounded=0;whiteSpace=wrap;html=1;" parent="Geku6nf0btogOaxhjyzA-1" vertex="1">
          <mxGeometry x="530" y="435" width="90" height="90" as="geometry" />
        </mxCell>
        <mxCell id="yFrAFG5AL53cfiDgzdC0-2" value="" style="endArrow=classic;html=1;rounded=0;" parent="Geku6nf0btogOaxhjyzA-1" source="yFrAFG5AL53cfiDgzdC0-1" target="yFrAFG5AL53cfiDgzdC0-0" edge="1">
          <mxGeometry width="50" height="50" relative="1" as="geometry">
            <mxPoint x="1000" y="465" as="sourcePoint" />
            <mxPoint x="1050" y="415" as="targetPoint" />
          </mxGeometry>
        </mxCell>
        <mxCell id="yFrAFG5AL53cfiDgzdC0-3" value="&lt;font style=&quot;font-size: 9px;&quot;&gt;Document&lt;/font&gt;&lt;div&gt;&lt;font style=&quot;&quot;&gt;&lt;font style=&quot;font-size: 7px;&quot;&gt;bool hasChanged&lt;/font&gt;&lt;br&gt;&lt;/font&gt;&lt;div&gt;&lt;font style=&quot;font-size: 7px;&quot;&gt;list&amp;lt;line&amp;gt;&lt;/font&gt;&lt;/div&gt;&lt;div&gt;&lt;font style=&quot;font-size: 7px;&quot;&gt;ex. sort(Block (default - whole file))&lt;/font&gt;&lt;/div&gt;&lt;div&gt;&lt;font style=&quot;font-size: 7px;&quot;&gt;getNumLines()&lt;/font&gt;&lt;/div&gt;&lt;div&gt;&lt;font style=&quot;font-size: 7px;&quot;&gt;getNumSymbols()&lt;/font&gt;&lt;/div&gt;&lt;/div&gt;" style="whiteSpace=wrap;html=1;aspect=fixed;" parent="Geku6nf0btogOaxhjyzA-1" vertex="1">
          <mxGeometry x="558.75" y="-510" width="100" height="100" as="geometry" />
        </mxCell>
        <mxCell id="yFrAFG5AL53cfiDgzdC0-4" value="&lt;font style=&quot;font-size: 9px;&quot;&gt;toUpper&lt;/font&gt;&lt;div&gt;&lt;span style=&quot;font-size: 7px;&quot;&gt;activeDocument(inj)&lt;/span&gt;&lt;font size=&quot;1&quot;&gt;&lt;br&gt;&lt;/font&gt;&lt;div&gt;&lt;span style=&quot;font-size: 7px;&quot;&gt;IO(inj)&lt;/span&gt;&lt;div&gt;&lt;div&gt;&lt;font style=&quot;font-size: 7px;&quot;&gt;doc.toUpper()&lt;/font&gt;&lt;/div&gt;&lt;/div&gt;&lt;/div&gt;&lt;/div&gt;" style="rounded=0;whiteSpace=wrap;html=1;" parent="Geku6nf0btogOaxhjyzA-1" vertex="1">
          <mxGeometry x="550" y="545" width="90" height="80" as="geometry" />
        </mxCell>
        <mxCell id="yFrAFG5AL53cfiDgzdC0-5" value="" style="endArrow=classic;html=1;rounded=0;" parent="Geku6nf0btogOaxhjyzA-1" source="yFrAFG5AL53cfiDgzdC0-4" target="yFrAFG5AL53cfiDgzdC0-0" edge="1">
          <mxGeometry width="50" height="50" relative="1" as="geometry">
            <mxPoint x="1020" y="425" as="sourcePoint" />
            <mxPoint x="1070" y="375" as="targetPoint" />
          </mxGeometry>
        </mxCell>
        <mxCell id="yFrAFG5AL53cfiDgzdC0-6" value="&lt;font style=&quot;font-size: 9px;&quot;&gt;toLower&lt;/font&gt;&lt;div&gt;&lt;span style=&quot;font-size: 7px;&quot;&gt;activeDocument(inj)&lt;/span&gt;&lt;font size=&quot;1&quot;&gt;&lt;br&gt;&lt;/font&gt;&lt;div&gt;&lt;span style=&quot;font-size: 7px;&quot;&gt;IO(inj)&lt;/span&gt;&lt;div&gt;&lt;div&gt;&lt;font style=&quot;font-size: 7px;&quot;&gt;doc.toLower()&lt;/font&gt;&lt;/div&gt;&lt;/div&gt;&lt;/div&gt;&lt;/div&gt;" style="whiteSpace=wrap;html=1;aspect=fixed;" parent="Geku6nf0btogOaxhjyzA-1" vertex="1">
          <mxGeometry x="580" y="645" width="90" height="90" as="geometry" />
        </mxCell>
        <mxCell id="yFrAFG5AL53cfiDgzdC0-7" value="" style="endArrow=classic;html=1;rounded=0;" parent="Geku6nf0btogOaxhjyzA-1" source="yFrAFG5AL53cfiDgzdC0-6" target="yFrAFG5AL53cfiDgzdC0-0" edge="1">
          <mxGeometry width="50" height="50" relative="1" as="geometry">
            <mxPoint x="1020" y="475" as="sourcePoint" />
            <mxPoint x="1070" y="425" as="targetPoint" />
          </mxGeometry>
        </mxCell>
        <mxCell id="yFrAFG5AL53cfiDgzdC0-8" value="&lt;font style=&quot;font-size: 9px;&quot;&gt;IO&lt;/font&gt;&lt;div&gt;&lt;font style=&quot;font-size: 9px;&quot;&gt;success()&lt;/font&gt;&lt;/div&gt;&lt;div&gt;&lt;font style=&quot;font-size: 9px;&quot;&gt;failure()&lt;/font&gt;&lt;/div&gt;" style="whiteSpace=wrap;html=1;aspect=fixed;" parent="Geku6nf0btogOaxhjyzA-1" vertex="1">
          <mxGeometry x="90" y="30" width="60" height="60" as="geometry" />
        </mxCell>
        <mxCell id="yFrAFG5AL53cfiDgzdC0-9" value="&lt;span style=&quot;font-size: 9px;&quot;&gt;replaceTextIO&lt;/span&gt;&lt;div&gt;&lt;span style=&quot;font-size: 7px;&quot;&gt;FormatManager fm(inj)&lt;/span&gt;&lt;span style=&quot;font-size: 9px;&quot;&gt;&lt;/span&gt;&lt;/div&gt;" style="rounded=0;whiteSpace=wrap;html=1;" parent="Geku6nf0btogOaxhjyzA-1" vertex="1">
          <mxGeometry x="-40" y="137.5" width="80" height="30" as="geometry" />
        </mxCell>
        <mxCell id="yFrAFG5AL53cfiDgzdC0-10" value="" style="endArrow=classic;html=1;rounded=0;exitX=1;exitY=0;exitDx=0;exitDy=0;" parent="Geku6nf0btogOaxhjyzA-1" source="yFrAFG5AL53cfiDgzdC0-9" target="yFrAFG5AL53cfiDgzdC0-8" edge="1">
          <mxGeometry width="50" height="50" relative="1" as="geometry">
            <mxPoint x="-100" y="100" as="sourcePoint" />
            <mxPoint x="-50" y="50" as="targetPoint" />
          </mxGeometry>
        </mxCell>
        <mxCell id="yFrAFG5AL53cfiDgzdC0-11" value="&lt;font style=&quot;font-size: 9px;&quot;&gt;toUpperIO&lt;/font&gt;&lt;div&gt;&lt;font style=&quot;font-size: 9px;&quot;&gt;&lt;span style=&quot;font-size: 7px;&quot;&gt;FormatManager fm(inj)&lt;/span&gt;&lt;/font&gt;&lt;/div&gt;" style="rounded=0;whiteSpace=wrap;html=1;" parent="Geku6nf0btogOaxhjyzA-1" vertex="1">
          <mxGeometry x="-30" y="170" width="80" height="30" as="geometry" />
        </mxCell>
        <mxCell id="yFrAFG5AL53cfiDgzdC0-12" value="" style="endArrow=classic;html=1;rounded=0;exitX=1;exitY=0;exitDx=0;exitDy=0;" parent="Geku6nf0btogOaxhjyzA-1" source="yFrAFG5AL53cfiDgzdC0-11" target="yFrAFG5AL53cfiDgzdC0-8" edge="1">
          <mxGeometry width="50" height="50" relative="1" as="geometry">
            <mxPoint x="-100" y="100" as="sourcePoint" />
            <mxPoint x="-50" y="50" as="targetPoint" />
          </mxGeometry>
        </mxCell>
        <mxCell id="yFrAFG5AL53cfiDgzdC0-13" value="&lt;font style=&quot;font-size: 9px;&quot;&gt;toLowerIO&lt;/font&gt;&lt;div&gt;&lt;font style=&quot;font-size: 9px;&quot;&gt;&lt;span style=&quot;font-size: 7px;&quot;&gt;FormatManager fm(inj)&lt;/span&gt;&lt;/font&gt;&lt;/div&gt;" style="rounded=0;whiteSpace=wrap;html=1;" parent="Geku6nf0btogOaxhjyzA-1" vertex="1">
          <mxGeometry x="-20" y="210" width="80" height="30" as="geometry" />
        </mxCell>
        <mxCell id="yFrAFG5AL53cfiDgzdC0-14" value="" style="endArrow=classic;html=1;rounded=0;exitX=1;exitY=0;exitDx=0;exitDy=0;" parent="Geku6nf0btogOaxhjyzA-1" source="yFrAFG5AL53cfiDgzdC0-13" target="yFrAFG5AL53cfiDgzdC0-8" edge="1">
          <mxGeometry width="50" height="50" relative="1" as="geometry">
            <mxPoint x="-100" y="100" as="sourcePoint" />
            <mxPoint x="-50" y="50" as="targetPoint" />
          </mxGeometry>
        </mxCell>
        <mxCell id="yFrAFG5AL53cfiDgzdC0-15" value="&lt;font style=&quot;font-size: 9px;&quot;&gt;trimLeading&lt;/font&gt;&lt;div&gt;&lt;span style=&quot;font-size: 7px;&quot;&gt;activeDocument(inj)&lt;/span&gt;&lt;font size=&quot;1&quot;&gt;&lt;br&gt;&lt;/font&gt;&lt;div&gt;&lt;font style=&quot;font-size: 7px;&quot;&gt;IO(inj)&lt;/font&gt;&lt;/div&gt;&lt;div&gt;&lt;font style=&quot;font-size: 7px;&quot;&gt;cm(inj)&lt;/font&gt;&lt;/div&gt;&lt;/div&gt;" style="rounded=0;whiteSpace=wrap;html=1;" parent="Geku6nf0btogOaxhjyzA-1" vertex="1">
          <mxGeometry x="757.5" y="760" width="80" height="70" as="geometry" />
        </mxCell>
        <mxCell id="yFrAFG5AL53cfiDgzdC0-16" value="" style="endArrow=classic;html=1;rounded=0;" parent="Geku6nf0btogOaxhjyzA-1" source="yFrAFG5AL53cfiDgzdC0-15" target="yFrAFG5AL53cfiDgzdC0-0" edge="1">
          <mxGeometry width="50" height="50" relative="1" as="geometry">
            <mxPoint x="1080" y="615" as="sourcePoint" />
            <mxPoint x="1130" y="565" as="targetPoint" />
          </mxGeometry>
        </mxCell>
        <mxCell id="yFrAFG5AL53cfiDgzdC0-17" value="&lt;font style=&quot;font-size: 9px;&quot;&gt;trimTrailing&lt;/font&gt;&lt;div&gt;&lt;span style=&quot;font-size: 7px;&quot;&gt;activeDocument(inj)&lt;/span&gt;&lt;font size=&quot;1&quot;&gt;&lt;br&gt;&lt;/font&gt;&lt;div&gt;&lt;font style=&quot;font-size: 7px;&quot;&gt;IO(inj)&lt;/font&gt;&lt;/div&gt;&lt;div&gt;&lt;font style=&quot;font-size: 7px;&quot;&gt;cm(inj)&lt;/font&gt;&lt;/div&gt;&lt;/div&gt;" style="rounded=0;whiteSpace=wrap;html=1;" parent="Geku6nf0btogOaxhjyzA-1" vertex="1">
          <mxGeometry x="670" y="745" width="75" height="70" as="geometry" />
        </mxCell>
        <mxCell id="yFrAFG5AL53cfiDgzdC0-18" value="" style="endArrow=classic;html=1;rounded=0;exitX=1;exitY=0;exitDx=0;exitDy=0;" parent="Geku6nf0btogOaxhjyzA-1" source="yFrAFG5AL53cfiDgzdC0-17" target="yFrAFG5AL53cfiDgzdC0-0" edge="1">
          <mxGeometry width="50" height="50" relative="1" as="geometry">
            <mxPoint x="1080" y="525" as="sourcePoint" />
            <mxPoint x="1130" y="475" as="targetPoint" />
          </mxGeometry>
        </mxCell>
        <mxCell id="yFrAFG5AL53cfiDgzdC0-19" value="&lt;font style=&quot;font-size: 9px;&quot;&gt;trimTrailingIO&lt;/font&gt;&lt;div&gt;&lt;font style=&quot;font-size: 9px;&quot;&gt;&lt;span style=&quot;font-size: 7px;&quot;&gt;FormatManager fm(inj)&lt;/span&gt;&lt;/font&gt;&lt;/div&gt;" style="rounded=0;whiteSpace=wrap;html=1;" parent="Geku6nf0btogOaxhjyzA-1" vertex="1">
          <mxGeometry x="-60" y="100" width="80" height="30" as="geometry" />
        </mxCell>
        <mxCell id="yFrAFG5AL53cfiDgzdC0-20" value="&lt;font style=&quot;font-size: 9px;&quot;&gt;trimLeadingIO&lt;/font&gt;&lt;div&gt;&lt;font style=&quot;font-size: 7px;&quot;&gt;FormatManager fm(inj)&lt;/font&gt;&lt;/div&gt;" style="rounded=0;whiteSpace=wrap;html=1;" parent="Geku6nf0btogOaxhjyzA-1" vertex="1">
          <mxGeometry x="-70" y="60" width="80" height="30" as="geometry" />
        </mxCell>
        <mxCell id="yFrAFG5AL53cfiDgzdC0-21" value="" style="endArrow=classic;html=1;rounded=0;" parent="Geku6nf0btogOaxhjyzA-1" source="yFrAFG5AL53cfiDgzdC0-20" target="yFrAFG5AL53cfiDgzdC0-8" edge="1">
          <mxGeometry width="50" height="50" relative="1" as="geometry">
            <mxPoint x="-160" y="160" as="sourcePoint" />
            <mxPoint x="-110" y="110" as="targetPoint" />
          </mxGeometry>
        </mxCell>
        <mxCell id="yFrAFG5AL53cfiDgzdC0-22" value="" style="endArrow=classic;html=1;rounded=0;" parent="Geku6nf0btogOaxhjyzA-1" source="yFrAFG5AL53cfiDgzdC0-19" target="yFrAFG5AL53cfiDgzdC0-8" edge="1">
          <mxGeometry width="50" height="50" relative="1" as="geometry">
            <mxPoint x="-160" y="160" as="sourcePoint" />
            <mxPoint x="-110" y="110" as="targetPoint" />
          </mxGeometry>
        </mxCell>
        <mxCell id="yFrAFG5AL53cfiDgzdC0-23" value="&lt;div&gt;&lt;span style=&quot;font-size: 9px; background-color: transparent; color: light-dark(rgb(0, 0, 0), rgb(255, 255, 255));&quot;&gt;CreateBlock&lt;/span&gt;&lt;/div&gt;&lt;div&gt;&lt;font style=&quot;&quot;&gt;&lt;font style=&quot;font-size: 6px;&quot;&gt;IO(inj)&lt;/font&gt;&lt;/font&gt;&lt;/div&gt;&lt;div&gt;&lt;font style=&quot;font-size: 7px;&quot;&gt;Blocks(inj).add.update&lt;/font&gt;&lt;/div&gt;" style="rounded=0;whiteSpace=wrap;html=1;" parent="Geku6nf0btogOaxhjyzA-1" vertex="1">
          <mxGeometry x="870" y="780" width="75" height="60" as="geometry" />
        </mxCell>
        <mxCell id="yFrAFG5AL53cfiDgzdC0-24" value="&lt;font style=&quot;font-size: 9px;&quot;&gt;Block&lt;/font&gt;&lt;div&gt;&lt;font style=&quot;font-size: 7px;&quot;&gt;&lt;font style=&quot;&quot;&gt;name&lt;/font&gt;&lt;br&gt;&lt;/font&gt;&lt;div&gt;&lt;font style=&quot;font-size: 7px;&quot;&gt;range&lt;/font&gt;&lt;/div&gt;&lt;/div&gt;" style="rounded=0;whiteSpace=wrap;html=1;" parent="Geku6nf0btogOaxhjyzA-1" vertex="1">
          <mxGeometry x="1288.75" y="-680" width="62.5" height="60" as="geometry" />
        </mxCell>
        <mxCell id="yFrAFG5AL53cfiDgzdC0-25" value="&lt;font style=&quot;font-size: 9px;&quot;&gt;BlockRegister&lt;/font&gt;&lt;div&gt;&lt;font style=&quot;font-size: 7px;&quot;&gt;blockParser bp&lt;br&gt;&lt;/font&gt;&lt;div&gt;&lt;font style=&quot;font-size: 7px;&quot;&gt;list&amp;lt;Block&amp;gt; - loads from parser&lt;/font&gt;&lt;/div&gt;&lt;div&gt;&lt;font style=&quot;font-size: 7px;&quot;&gt;getBlocks()&lt;/font&gt;&lt;/div&gt;&lt;div&gt;&lt;font style=&quot;font-size: 7px;&quot;&gt;addBlock()&lt;/font&gt;&lt;/div&gt;&lt;/div&gt;&lt;div&gt;&lt;font style=&quot;font-size: 7px;&quot;&gt;removeBlock()&lt;/font&gt;&lt;/div&gt;&lt;div&gt;&lt;font style=&quot;font-size: 7px;&quot;&gt;update()&lt;/font&gt;&lt;/div&gt;" style="rounded=0;whiteSpace=wrap;html=1;" parent="Geku6nf0btogOaxhjyzA-1" vertex="1">
          <mxGeometry x="1270" y="-582.5" width="100" height="105" as="geometry" />
        </mxCell>
        <mxCell id="yFrAFG5AL53cfiDgzdC0-26" value="&lt;font style=&quot;font-size: 8px;&quot;&gt;CreateBlockIO&lt;/font&gt;" style="rounded=0;whiteSpace=wrap;html=1;" parent="Geku6nf0btogOaxhjyzA-1" vertex="1">
          <mxGeometry x="10" y="250" width="60" height="20" as="geometry" />
        </mxCell>
        <mxCell id="yFrAFG5AL53cfiDgzdC0-27" value="" style="endArrow=classic;html=1;rounded=0;exitX=0.867;exitY=0.058;exitDx=0;exitDy=0;exitPerimeter=0;" parent="Geku6nf0btogOaxhjyzA-1" source="yFrAFG5AL53cfiDgzdC0-26" target="yFrAFG5AL53cfiDgzdC0-8" edge="1">
          <mxGeometry width="50" height="50" relative="1" as="geometry">
            <mxPoint x="145" y="50" as="sourcePoint" />
            <mxPoint x="195" as="targetPoint" />
          </mxGeometry>
        </mxCell>
        <mxCell id="yFrAFG5AL53cfiDgzdC0-28" value="&lt;font style=&quot;font-size: 10px;&quot;&gt;blockParser&lt;/font&gt;&lt;div&gt;&lt;font style=&quot;font-size: 7px;&quot;&gt;filemanager(inj)&lt;/font&gt;&lt;br&gt;&lt;div&gt;&lt;div&gt;&lt;font style=&quot;font-size: 7px;&quot;&gt;loadBlocks()&lt;/font&gt;&lt;/div&gt;&lt;div&gt;&lt;font style=&quot;font-size: 7px;&quot;&gt;saveBlocks()&lt;/font&gt;&lt;/div&gt;&lt;/div&gt;&lt;/div&gt;" style="rounded=0;whiteSpace=wrap;html=1;" parent="Geku6nf0btogOaxhjyzA-1" vertex="1">
          <mxGeometry x="1108.75" y="-570" width="120" height="80" as="geometry" />
        </mxCell>
        <mxCell id="yFrAFG5AL53cfiDgzdC0-29" value="" style="endArrow=none;dashed=1;html=1;dashPattern=1 3;strokeWidth=2;rounded=0;" parent="Geku6nf0btogOaxhjyzA-1" source="yFrAFG5AL53cfiDgzdC0-28" target="yFrAFG5AL53cfiDgzdC0-25" edge="1">
          <mxGeometry width="50" height="50" relative="1" as="geometry">
            <mxPoint x="1088.75" y="-30" as="sourcePoint" />
            <mxPoint x="1138.75" y="-80" as="targetPoint" />
          </mxGeometry>
        </mxCell>
        <mxCell id="yFrAFG5AL53cfiDgzdC0-30" value="" style="endArrow=none;dashed=1;html=1;dashPattern=1 3;strokeWidth=2;rounded=0;" parent="Geku6nf0btogOaxhjyzA-1" source="yFrAFG5AL53cfiDgzdC0-0" target="yFrAFG5AL53cfiDgzdC0-66" edge="1">
          <mxGeometry width="50" height="50" relative="1" as="geometry">
            <mxPoint x="510" y="145" as="sourcePoint" />
            <mxPoint x="1080" y="265" as="targetPoint" />
          </mxGeometry>
        </mxCell>
        <mxCell id="yFrAFG5AL53cfiDgzdC0-31" value="" style="endArrow=classic;html=1;rounded=0;" parent="Geku6nf0btogOaxhjyzA-1" source="yFrAFG5AL53cfiDgzdC0-23" target="yFrAFG5AL53cfiDgzdC0-0" edge="1">
          <mxGeometry width="50" height="50" relative="1" as="geometry">
            <mxPoint x="1260" y="585" as="sourcePoint" />
            <mxPoint x="1310" y="535" as="targetPoint" />
          </mxGeometry>
        </mxCell>
        <mxCell id="yFrAFG5AL53cfiDgzdC0-32" value="&lt;font style=&quot;font-size: 9px;&quot;&gt;sort&lt;/font&gt;&lt;div&gt;&lt;span style=&quot;font-size: 7px;&quot;&gt;activeDocument(inj)&lt;/span&gt;&lt;font size=&quot;1&quot;&gt;&lt;br&gt;&lt;/font&gt;&lt;div&gt;&lt;font style=&quot;font-size: 7px;&quot;&gt;IO(inj)&lt;/font&gt;&lt;/div&gt;&lt;div&gt;&lt;font style=&quot;font-size: 7px;&quot;&gt;block(gotten from IO)&lt;/font&gt;&lt;/div&gt;&lt;div&gt;&lt;font style=&quot;font-size: 7px;&quot;&gt;doc.sort(block)&lt;/font&gt;&lt;/div&gt;&lt;/div&gt;" style="rounded=0;whiteSpace=wrap;html=1;" parent="Geku6nf0btogOaxhjyzA-1" vertex="1">
          <mxGeometry x="1195" y="715" width="75" height="100" as="geometry" />
        </mxCell>
        <mxCell id="yFrAFG5AL53cfiDgzdC0-33" value="" style="endArrow=classic;html=1;rounded=0;" parent="Geku6nf0btogOaxhjyzA-1" source="yFrAFG5AL53cfiDgzdC0-32" target="yFrAFG5AL53cfiDgzdC0-0" edge="1">
          <mxGeometry width="50" height="50" relative="1" as="geometry">
            <mxPoint x="1220" y="655" as="sourcePoint" />
            <mxPoint x="1270" y="605" as="targetPoint" />
          </mxGeometry>
        </mxCell>
        <mxCell id="yFrAFG5AL53cfiDgzdC0-34" value="&lt;font style=&quot;font-size: 9px;&quot;&gt;sortIO&lt;/font&gt;&lt;div&gt;&lt;span style=&quot;font-size: 7px;&quot;&gt;FormatManager fm(inj)&lt;/span&gt;&lt;font size=&quot;1&quot;&gt;&lt;br&gt;&lt;/font&gt;&lt;div&gt;&lt;font style=&quot;font-size: 5px;&quot;&gt;ask for block&lt;/font&gt;&lt;/div&gt;&lt;/div&gt;" style="rounded=0;whiteSpace=wrap;html=1;" parent="Geku6nf0btogOaxhjyzA-1" vertex="1">
          <mxGeometry x="172.5" y="280" width="75" height="40" as="geometry" />
        </mxCell>
        <mxCell id="yFrAFG5AL53cfiDgzdC0-35" value="" style="endArrow=classic;html=1;rounded=0;" parent="Geku6nf0btogOaxhjyzA-1" source="yFrAFG5AL53cfiDgzdC0-34" target="yFrAFG5AL53cfiDgzdC0-8" edge="1">
          <mxGeometry width="50" height="50" relative="1" as="geometry">
            <mxPoint x="255" y="140" as="sourcePoint" />
            <mxPoint x="305" y="90" as="targetPoint" />
          </mxGeometry>
        </mxCell>
        <mxCell id="yFrAFG5AL53cfiDgzdC0-36" value="&lt;font style=&quot;font-size: 9px;&quot;&gt;scramble&lt;/font&gt;&lt;div&gt;&lt;span style=&quot;font-size: 7px;&quot;&gt;activeDocument(inj)&lt;/span&gt;&lt;font size=&quot;1&quot;&gt;&lt;br&gt;&lt;/font&gt;&lt;div&gt;&lt;font style=&quot;font-size: 7px;&quot;&gt;IO(inj)&lt;/font&gt;&lt;/div&gt;&lt;div&gt;&lt;font style=&quot;font-size: 7px;&quot;&gt;block(gotten from IO)&lt;/font&gt;&lt;/div&gt;&lt;div&gt;&lt;font style=&quot;font-size: 7px;&quot;&gt;doc.sort(block)&lt;/font&gt;&lt;/div&gt;&lt;/div&gt;" style="rounded=0;whiteSpace=wrap;html=1;" parent="Geku6nf0btogOaxhjyzA-1" vertex="1">
          <mxGeometry x="1100" y="745" width="80" height="100" as="geometry" />
        </mxCell>
        <mxCell id="yFrAFG5AL53cfiDgzdC0-37" value="" style="endArrow=classic;html=1;rounded=0;" parent="Geku6nf0btogOaxhjyzA-1" source="yFrAFG5AL53cfiDgzdC0-36" target="yFrAFG5AL53cfiDgzdC0-0" edge="1">
          <mxGeometry width="50" height="50" relative="1" as="geometry">
            <mxPoint x="1190" y="625" as="sourcePoint" />
            <mxPoint x="1240" y="575" as="targetPoint" />
          </mxGeometry>
        </mxCell>
        <mxCell id="yFrAFG5AL53cfiDgzdC0-38" value="&lt;font style=&quot;font-size: 9px;&quot;&gt;removeRepeats&lt;/font&gt;&lt;div&gt;&lt;span style=&quot;font-size: 7px;&quot;&gt;activeDocument(inj)&lt;/span&gt;&lt;font size=&quot;1&quot;&gt;&lt;br&gt;&lt;/font&gt;&lt;div&gt;&lt;font style=&quot;font-size: 7px;&quot;&gt;IO(inj)&lt;/font&gt;&lt;/div&gt;&lt;div&gt;&lt;font style=&quot;font-size: 7px;&quot;&gt;block(gotten from IO)&lt;/font&gt;&lt;/div&gt;&lt;div&gt;&lt;font style=&quot;font-size: 7px;&quot;&gt;doc.sort(block)&lt;/font&gt;&lt;/div&gt;&lt;/div&gt;" style="rounded=0;whiteSpace=wrap;html=1;" parent="Geku6nf0btogOaxhjyzA-1" vertex="1">
          <mxGeometry x="1290" y="695" width="80" height="100" as="geometry" />
        </mxCell>
        <mxCell id="yFrAFG5AL53cfiDgzdC0-39" value="" style="endArrow=classic;html=1;rounded=0;" parent="Geku6nf0btogOaxhjyzA-1" source="yFrAFG5AL53cfiDgzdC0-38" target="yFrAFG5AL53cfiDgzdC0-0" edge="1">
          <mxGeometry width="50" height="50" relative="1" as="geometry">
            <mxPoint x="1220" y="675" as="sourcePoint" />
            <mxPoint x="1270" y="625" as="targetPoint" />
          </mxGeometry>
        </mxCell>
        <mxCell id="yFrAFG5AL53cfiDgzdC0-40" value="&lt;font style=&quot;font-size: 9px;&quot;&gt;scrambleIO&lt;/font&gt;&lt;div&gt;&lt;span style=&quot;font-size: 7px;&quot;&gt;FormatManager fm(inj)&lt;/span&gt;&lt;font size=&quot;1&quot;&gt;&lt;br&gt;&lt;/font&gt;&lt;div&gt;&lt;font style=&quot;font-size: 5px;&quot;&gt;ask for block&lt;/font&gt;&lt;/div&gt;&lt;/div&gt;" style="rounded=0;whiteSpace=wrap;html=1;" parent="Geku6nf0btogOaxhjyzA-1" vertex="1">
          <mxGeometry x="215" y="230" width="80" height="40" as="geometry" />
        </mxCell>
        <mxCell id="yFrAFG5AL53cfiDgzdC0-41" value="" style="endArrow=classic;html=1;rounded=0;" parent="Geku6nf0btogOaxhjyzA-1" source="yFrAFG5AL53cfiDgzdC0-40" target="yFrAFG5AL53cfiDgzdC0-8" edge="1">
          <mxGeometry width="50" height="50" relative="1" as="geometry">
            <mxPoint x="270" y="70" as="sourcePoint" />
            <mxPoint x="320" y="20" as="targetPoint" />
          </mxGeometry>
        </mxCell>
        <mxCell id="yFrAFG5AL53cfiDgzdC0-42" value="&lt;font style=&quot;font-size: 9px;&quot;&gt;removeRepeatsIO&lt;/font&gt;&lt;div&gt;&lt;span style=&quot;font-size: 7px;&quot;&gt;FormatManager fm(inj)&lt;/span&gt;&lt;font size=&quot;1&quot;&gt;&lt;br&gt;&lt;/font&gt;&lt;div&gt;&lt;font style=&quot;font-size: 5px;&quot;&gt;ask for block&lt;/font&gt;&lt;/div&gt;&lt;/div&gt;" style="rounded=0;whiteSpace=wrap;html=1;" parent="Geku6nf0btogOaxhjyzA-1" vertex="1">
          <mxGeometry x="270" y="185" width="90" height="40" as="geometry" />
        </mxCell>
        <mxCell id="yFrAFG5AL53cfiDgzdC0-43" value="" style="endArrow=classic;html=1;rounded=0;" parent="Geku6nf0btogOaxhjyzA-1" source="yFrAFG5AL53cfiDgzdC0-42" target="yFrAFG5AL53cfiDgzdC0-8" edge="1">
          <mxGeometry width="50" height="50" relative="1" as="geometry">
            <mxPoint x="310" y="80" as="sourcePoint" />
            <mxPoint x="360" y="30" as="targetPoint" />
          </mxGeometry>
        </mxCell>
        <mxCell id="yFrAFG5AL53cfiDgzdC0-44" style="edgeStyle=none;curved=1;rounded=0;orthogonalLoop=1;jettySize=auto;html=1;fontSize=12;startSize=8;endSize=8;entryX=0.5;entryY=1;entryDx=0;entryDy=0;" parent="Geku6nf0btogOaxhjyzA-1" source="yFrAFG5AL53cfiDgzdC0-45" target="yFrAFG5AL53cfiDgzdC0-45" edge="1">
          <mxGeometry relative="1" as="geometry">
            <mxPoint x="773.75" y="-460" as="targetPoint" />
          </mxGeometry>
        </mxCell>
        <mxCell id="yFrAFG5AL53cfiDgzdC0-45" value="&lt;font style=&quot;font-size: 9px;&quot;&gt;documentRegister&lt;/font&gt;&lt;div&gt;&lt;font style=&quot;&quot;&gt;&lt;font style=&quot;font-size: 7px;&quot;&gt;documentParser dp&lt;/font&gt;&lt;br&gt;&lt;/font&gt;&lt;div&gt;&lt;font style=&quot;font-size: 7px;&quot;&gt;list&amp;lt;Document&amp;gt;&lt;/font&gt;&lt;/div&gt;&lt;div&gt;&lt;font style=&quot;font-size: 7px;&quot;&gt;getDocument(name) - load from parser&lt;/font&gt;&lt;/div&gt;&lt;div&gt;&lt;font style=&quot;font-size: 7px;&quot;&gt;addDocument(name)&lt;/font&gt;&lt;/div&gt;&lt;div&gt;&lt;font style=&quot;font-size: 7px;&quot;&gt;update()&lt;/font&gt;&lt;/div&gt;&lt;/div&gt;&lt;div&gt;&lt;font style=&quot;font-size: 7px;&quot;&gt;saveDocument(Document)&lt;/font&gt;&lt;/div&gt;&lt;div&gt;&lt;font style=&quot;font-size: 7px;&quot;&gt;saveAsDocument(Document)&lt;/font&gt;&lt;/div&gt;&lt;div&gt;&lt;font style=&quot;font-size: 7px;&quot;&gt;list&amp;lt;Document&amp;gt; getDocuments()&lt;/font&gt;&lt;/div&gt;" style="rounded=0;whiteSpace=wrap;html=1;" parent="Geku6nf0btogOaxhjyzA-1" vertex="1">
          <mxGeometry x="708.75" y="-593.12" width="130" height="126.25" as="geometry" />
        </mxCell>
        <mxCell id="yFrAFG5AL53cfiDgzdC0-46" value="&lt;font style=&quot;font-size: 9px;&quot;&gt;loadDocument&lt;/font&gt;&lt;div&gt;&lt;font style=&quot;font-size: 7px;&quot;&gt;IO(inj)&lt;/font&gt;&lt;/div&gt;&lt;div&gt;&lt;font style=&quot;font-size: 7px;&quot;&gt;documentRegister(inj).getFromParser&lt;/font&gt;&lt;/div&gt;&lt;div&gt;&lt;font style=&quot;font-size: 7px;&quot;&gt;documentRegister(inj).add&lt;/font&gt;&lt;/div&gt;" style="rounded=0;whiteSpace=wrap;html=1;" parent="Geku6nf0btogOaxhjyzA-1" vertex="1">
          <mxGeometry x="1380" y="645" width="120" height="75" as="geometry" />
        </mxCell>
        <mxCell id="yFrAFG5AL53cfiDgzdC0-47" value="&lt;font style=&quot;font-size: 9px;&quot;&gt;activeDocument&lt;/font&gt;&lt;div&gt;&lt;font style=&quot;font-size: 7px;&quot;&gt;documentRegister&lt;/font&gt;&lt;/div&gt;&lt;div&gt;&lt;font style=&quot;font-size: 7px;&quot;&gt;Document doc&lt;br&gt;&lt;/font&gt;&lt;div&gt;&lt;font style=&quot;font-size: 7px;&quot;&gt;name/file&lt;/font&gt;&lt;/div&gt;&lt;/div&gt;&lt;div&gt;&lt;font style=&quot;font-size: 7px;&quot;&gt;getActiveDoc()&lt;/font&gt;&lt;/div&gt;&lt;div&gt;&lt;font style=&quot;font-size: 7px;&quot;&gt;setActiveDoc()&lt;/font&gt;&lt;/div&gt;" style="rounded=0;whiteSpace=wrap;html=1;" parent="Geku6nf0btogOaxhjyzA-1" vertex="1">
          <mxGeometry x="568.75" y="-630" width="80" height="90" as="geometry" />
        </mxCell>
        <mxCell id="yFrAFG5AL53cfiDgzdC0-48" value="&lt;font style=&quot;font-size: 9px;&quot;&gt;setActiveDocument&lt;/font&gt;&lt;div&gt;&lt;font style=&quot;font-size: 7px;&quot;&gt;activeDocument(inj)&lt;br&gt;&lt;/font&gt;&lt;div&gt;&lt;font style=&quot;font-size: 7px;&quot;&gt;activeDocument.setActiveDoc()&lt;br&gt;&lt;/font&gt;&lt;div&gt;&lt;font style=&quot;font-size: 7px;&quot;&gt;IO(inj)&lt;/font&gt;&lt;/div&gt;&lt;/div&gt;&lt;/div&gt;" style="rounded=0;whiteSpace=wrap;html=1;" parent="Geku6nf0btogOaxhjyzA-1" vertex="1">
          <mxGeometry x="1440" y="475" width="160" height="60" as="geometry" />
        </mxCell>
        <mxCell id="yFrAFG5AL53cfiDgzdC0-49" value="" style="endArrow=classic;html=1;rounded=0;" parent="Geku6nf0btogOaxhjyzA-1" source="yFrAFG5AL53cfiDgzdC0-48" target="yFrAFG5AL53cfiDgzdC0-0" edge="1">
          <mxGeometry width="50" height="50" relative="1" as="geometry">
            <mxPoint x="1440" y="555" as="sourcePoint" />
            <mxPoint x="1490" y="505" as="targetPoint" />
          </mxGeometry>
        </mxCell>
        <mxCell id="yFrAFG5AL53cfiDgzdC0-50" value="" style="endArrow=none;dashed=1;html=1;dashPattern=1 3;strokeWidth=2;rounded=0;" parent="Geku6nf0btogOaxhjyzA-1" source="yFrAFG5AL53cfiDgzdC0-3" target="yFrAFG5AL53cfiDgzdC0-47" edge="1">
          <mxGeometry width="50" height="50" relative="1" as="geometry">
            <mxPoint x="668.75" y="-460" as="sourcePoint" />
            <mxPoint x="718.75" y="-510" as="targetPoint" />
          </mxGeometry>
        </mxCell>
        <mxCell id="yFrAFG5AL53cfiDgzdC0-51" value="" style="endArrow=none;dashed=1;html=1;dashPattern=1 3;strokeWidth=2;rounded=0;" parent="Geku6nf0btogOaxhjyzA-1" source="yFrAFG5AL53cfiDgzdC0-3" target="yFrAFG5AL53cfiDgzdC0-45" edge="1">
          <mxGeometry width="50" height="50" relative="1" as="geometry">
            <mxPoint x="668.75" y="-460" as="sourcePoint" />
            <mxPoint x="718.75" y="-510" as="targetPoint" />
          </mxGeometry>
        </mxCell>
        <mxCell id="yFrAFG5AL53cfiDgzdC0-52" value="&lt;font style=&quot;font-size: 9px;&quot;&gt;fileManager&lt;/font&gt;&lt;div&gt;&lt;div&gt;&lt;font style=&quot;font-size: 7px;&quot;&gt;returns fd open(str)&lt;/font&gt;&lt;/div&gt;&lt;div&gt;&lt;font style=&quot;font-size: 7px;&quot;&gt;return str load()&lt;/font&gt;&lt;/div&gt;&lt;div&gt;&lt;font style=&quot;font-size: 7px;&quot;&gt;close()&lt;/font&gt;&lt;/div&gt;&lt;div&gt;&lt;font style=&quot;font-size: 7px;&quot;&gt;save(fd, string(from documentParser/blockParser))&lt;/font&gt;&lt;/div&gt;&lt;div&gt;&lt;font style=&quot;font-size: 7px;&quot;&gt;saveAs(fd,&amp;nbsp;&lt;span style=&quot;background-color: transparent; color: light-dark(rgb(0, 0, 0), rgb(255, 255, 255));&quot;&gt;string(from documentParser/blockParser)&lt;/span&gt;&lt;span style=&quot;background-color: transparent; color: light-dark(rgb(0, 0, 0), rgb(255, 255, 255));&quot;&gt;)&lt;/span&gt;&lt;/font&gt;&lt;/div&gt;&lt;/div&gt;" style="rounded=0;whiteSpace=wrap;html=1;" parent="Geku6nf0btogOaxhjyzA-1" vertex="1">
          <mxGeometry x="987.5" y="-795" width="185" height="100" as="geometry" />
        </mxCell>
        <mxCell id="yFrAFG5AL53cfiDgzdC0-53" value="&lt;font style=&quot;font-size: 9px;&quot;&gt;documentParser&lt;/font&gt;&lt;div&gt;&lt;font style=&quot;font-size: 7px;&quot;&gt;filemanager(inj)&lt;/font&gt;&lt;/div&gt;&lt;div&gt;&lt;font style=&quot;font-size: 7px;&quot;&gt;saveAsDocument&lt;/font&gt;&lt;/div&gt;&lt;div&gt;&lt;font style=&quot;font-size: 7px;&quot;&gt;return document loadDocument&lt;/font&gt;&lt;/div&gt;&lt;div&gt;&lt;font style=&quot;font-size: 7px;&quot;&gt;unloadDocument&lt;/font&gt;&lt;/div&gt;" style="rounded=0;whiteSpace=wrap;html=1;" parent="Geku6nf0btogOaxhjyzA-1" vertex="1">
          <mxGeometry x="918.75" y="-580" width="110" height="100" as="geometry" />
        </mxCell>
        <mxCell id="yFrAFG5AL53cfiDgzdC0-54" value="" style="endArrow=none;dashed=1;html=1;dashPattern=1 3;strokeWidth=2;rounded=0;" parent="Geku6nf0btogOaxhjyzA-1" source="yFrAFG5AL53cfiDgzdC0-24" target="yFrAFG5AL53cfiDgzdC0-25" edge="1">
          <mxGeometry width="50" height="50" relative="1" as="geometry">
            <mxPoint x="1203.75" y="-560" as="sourcePoint" />
            <mxPoint x="1253.75" y="-610" as="targetPoint" />
          </mxGeometry>
        </mxCell>
        <mxCell id="yFrAFG5AL53cfiDgzdC0-55" value="" style="endArrow=none;dashed=1;html=1;dashPattern=1 3;strokeWidth=2;rounded=0;" parent="Geku6nf0btogOaxhjyzA-1" source="yFrAFG5AL53cfiDgzdC0-47" target="yFrAFG5AL53cfiDgzdC0-45" edge="1">
          <mxGeometry width="50" height="50" relative="1" as="geometry">
            <mxPoint x="538.75" y="-340" as="sourcePoint" />
            <mxPoint x="588.75" y="-390" as="targetPoint" />
          </mxGeometry>
        </mxCell>
        <mxCell id="yFrAFG5AL53cfiDgzdC0-56" value="" style="endArrow=classic;html=1;rounded=0;" parent="Geku6nf0btogOaxhjyzA-1" source="yFrAFG5AL53cfiDgzdC0-46" target="yFrAFG5AL53cfiDgzdC0-0" edge="1">
          <mxGeometry width="50" height="50" relative="1" as="geometry">
            <mxPoint x="1420" y="385" as="sourcePoint" />
            <mxPoint x="1470" y="335" as="targetPoint" />
          </mxGeometry>
        </mxCell>
        <mxCell id="yFrAFG5AL53cfiDgzdC0-60" value="" style="endArrow=none;dashed=1;html=1;dashPattern=1 3;strokeWidth=2;rounded=0;" parent="Geku6nf0btogOaxhjyzA-1" source="yFrAFG5AL53cfiDgzdC0-45" target="yFrAFG5AL53cfiDgzdC0-53" edge="1">
          <mxGeometry width="50" height="50" relative="1" as="geometry">
            <mxPoint x="938.75" y="-620" as="sourcePoint" />
            <mxPoint x="918.75" y="-546.0714285714287" as="targetPoint" />
          </mxGeometry>
        </mxCell>
        <mxCell id="yFrAFG5AL53cfiDgzdC0-62" value="&lt;font style=&quot;font-size: 9px;&quot;&gt;Line&lt;/font&gt;&lt;div&gt;&lt;font style=&quot;font-size: 7px;&quot;&gt;getLine()&lt;/font&gt;&lt;/div&gt;&lt;div&gt;&lt;font style=&quot;font-size: 7px;&quot;&gt;contains()&lt;/font&gt;&lt;/div&gt;&lt;div&gt;&lt;font style=&quot;font-size: 7px;&quot;&gt;replace()...&lt;/font&gt;&lt;/div&gt;&lt;div&gt;&lt;font style=&quot;font-size: 7px;&quot;&gt;isMovableInSort()&lt;/font&gt;&lt;/div&gt;" style="rounded=0;whiteSpace=wrap;html=1;" parent="Geku6nf0btogOaxhjyzA-1" vertex="1">
          <mxGeometry x="577.81" y="-380" width="61.87" height="80" as="geometry" />
        </mxCell>
        <mxCell id="yFrAFG5AL53cfiDgzdC0-63" value="" style="endArrow=none;dashed=1;html=1;dashPattern=1 3;strokeWidth=2;rounded=0;" parent="Geku6nf0btogOaxhjyzA-1" source="yFrAFG5AL53cfiDgzdC0-62" target="yFrAFG5AL53cfiDgzdC0-3" edge="1">
          <mxGeometry width="50" height="50" relative="1" as="geometry">
            <mxPoint x="950" y="-30" as="sourcePoint" />
            <mxPoint x="1000" y="-80" as="targetPoint" />
          </mxGeometry>
        </mxCell>
        <mxCell id="yFrAFG5AL53cfiDgzdC0-64" value="&lt;font style=&quot;font-size: 9px;&quot;&gt;unloadDocument/close&lt;/font&gt;&lt;div&gt;&lt;font style=&quot;font-size: 7px;&quot;&gt;IO(inj)&lt;/font&gt;&lt;/div&gt;&lt;div&gt;&lt;font style=&quot;font-size: 7px;&quot;&gt;ask for unsaved&lt;/font&gt;&lt;/div&gt;&lt;div&gt;&lt;font style=&quot;font-size: 7px;&quot;&gt;DocumentParser(inj).unload()&lt;/font&gt;&lt;/div&gt;&lt;div&gt;&lt;font style=&quot;font-size: 7px;&quot;&gt;documentRegister(inj).unload()&lt;/font&gt;&lt;/div&gt;" style="rounded=0;whiteSpace=wrap;html=1;" parent="Geku6nf0btogOaxhjyzA-1" vertex="1">
          <mxGeometry x="1410" y="550" width="120" height="75" as="geometry" />
        </mxCell>
        <mxCell id="yFrAFG5AL53cfiDgzdC0-65" value="" style="endArrow=classic;html=1;rounded=0;" parent="Geku6nf0btogOaxhjyzA-1" source="yFrAFG5AL53cfiDgzdC0-64" target="yFrAFG5AL53cfiDgzdC0-0" edge="1">
          <mxGeometry width="50" height="50" relative="1" as="geometry">
            <mxPoint x="1320" y="530" as="sourcePoint" />
            <mxPoint x="1370" y="480" as="targetPoint" />
          </mxGeometry>
        </mxCell>
        <mxCell id="yFrAFG5AL53cfiDgzdC0-66" value="&lt;font style=&quot;font-size: 9px;&quot;&gt;commandManager&lt;/font&gt;&lt;div&gt;&lt;font style=&quot;&quot;&gt;&lt;font style=&quot;font-size: 7px;&quot;&gt;list&amp;lt;Command&amp;gt; all commands&lt;/font&gt;&lt;br&gt;&lt;/font&gt;&lt;div&gt;&lt;font style=&quot;font-size: 7px;&quot;&gt;list&amp;lt;Command&amp;gt; stack of executed commands&lt;/font&gt;&lt;/div&gt;&lt;div&gt;&lt;font style=&quot;font-size: 7px;&quot;&gt;(for undo)&lt;/font&gt;&lt;/div&gt;&lt;/div&gt;" style="rounded=0;whiteSpace=wrap;html=1;" parent="Geku6nf0btogOaxhjyzA-1" vertex="1">
          <mxGeometry x="1005" y="88.75" width="150" height="75" as="geometry" />
        </mxCell>
        <mxCell id="yFrAFG5AL53cfiDgzdC0-67" value="&lt;font style=&quot;font-size: 9px;&quot;&gt;removeBlock&lt;/font&gt;&lt;div&gt;&lt;font style=&quot;font-size: 7px;&quot;&gt;IO(inj)&lt;/font&gt;&lt;/div&gt;&lt;div&gt;&lt;font style=&quot;font-size: 7px;&quot;&gt;BlockRegister(inj).removeBlock&lt;/font&gt;&lt;/div&gt;" style="rounded=0;whiteSpace=wrap;html=1;" parent="Geku6nf0btogOaxhjyzA-1" vertex="1">
          <mxGeometry x="960" y="780" width="110" height="60" as="geometry" />
        </mxCell>
        <mxCell id="yFrAFG5AL53cfiDgzdC0-68" value="" style="endArrow=classic;html=1;rounded=0;" parent="Geku6nf0btogOaxhjyzA-1" source="yFrAFG5AL53cfiDgzdC0-67" target="yFrAFG5AL53cfiDgzdC0-0" edge="1">
          <mxGeometry width="50" height="50" relative="1" as="geometry">
            <mxPoint x="970" y="780" as="sourcePoint" />
            <mxPoint x="1020" y="730" as="targetPoint" />
          </mxGeometry>
        </mxCell>
        <mxCell id="yFrAFG5AL53cfiDgzdC0-69" value="&lt;font style=&quot;font-size: 9px;&quot;&gt;undo&lt;/font&gt;&lt;div&gt;&lt;font style=&quot;font-size: 7px;&quot;&gt;IO(inj)&lt;/font&gt;&lt;/div&gt;&lt;div&gt;&lt;font style=&quot;font-size: 7px;&quot;&gt;CommandManager cm&lt;/font&gt;&lt;/div&gt;&lt;div&gt;&lt;font style=&quot;font-size: 7px;&quot;&gt;cm.undo()&lt;/font&gt;&lt;/div&gt;" style="rounded=0;whiteSpace=wrap;html=1;" parent="Geku6nf0btogOaxhjyzA-1" vertex="1">
          <mxGeometry x="555" y="350" width="80" height="60" as="geometry" />
        </mxCell>
        <mxCell id="yFrAFG5AL53cfiDgzdC0-70" value="" style="endArrow=classic;html=1;rounded=0;" parent="Geku6nf0btogOaxhjyzA-1" source="yFrAFG5AL53cfiDgzdC0-69" target="yFrAFG5AL53cfiDgzdC0-0" edge="1">
          <mxGeometry width="50" height="50" relative="1" as="geometry">
            <mxPoint x="800" y="430" as="sourcePoint" />
            <mxPoint x="850" y="380" as="targetPoint" />
          </mxGeometry>
        </mxCell>
        <mxCell id="yFrAFG5AL53cfiDgzdC0-71" value="&lt;font style=&quot;font-size: 9px;&quot;&gt;removeBlockIO&lt;/font&gt;&lt;div&gt;&lt;font style=&quot;font-size: 9px;&quot;&gt;&lt;span style=&quot;font-size: 7px;&quot;&gt;FormatManager fm(inj)&lt;/span&gt;&lt;/font&gt;&lt;/div&gt;" style="rounded=0;whiteSpace=wrap;html=1;" parent="Geku6nf0btogOaxhjyzA-1" vertex="1">
          <mxGeometry x="80" y="270" width="80" height="30" as="geometry" />
        </mxCell>
        <mxCell id="yFrAFG5AL53cfiDgzdC0-72" value="" style="endArrow=classic;html=1;rounded=0;" parent="Geku6nf0btogOaxhjyzA-1" source="yFrAFG5AL53cfiDgzdC0-71" target="yFrAFG5AL53cfiDgzdC0-8" edge="1">
          <mxGeometry width="50" height="50" relative="1" as="geometry">
            <mxPoint x="150" y="320" as="sourcePoint" />
            <mxPoint x="200" y="270" as="targetPoint" />
          </mxGeometry>
        </mxCell>
        <mxCell id="yFrAFG5AL53cfiDgzdC0-73" value="&lt;font style=&quot;font-size: 9px;&quot;&gt;loadDocumentIO&lt;/font&gt;" style="rounded=0;whiteSpace=wrap;html=1;" parent="Geku6nf0btogOaxhjyzA-1" vertex="1">
          <mxGeometry x="290" y="150" width="80" height="20" as="geometry" />
        </mxCell>
        <mxCell id="yFrAFG5AL53cfiDgzdC0-74" value="" style="endArrow=classic;html=1;rounded=0;" parent="Geku6nf0btogOaxhjyzA-1" source="yFrAFG5AL53cfiDgzdC0-73" target="yFrAFG5AL53cfiDgzdC0-8" edge="1">
          <mxGeometry width="50" height="50" relative="1" as="geometry">
            <mxPoint x="230" y="170" as="sourcePoint" />
            <mxPoint x="280" y="120" as="targetPoint" />
          </mxGeometry>
        </mxCell>
        <mxCell id="yFrAFG5AL53cfiDgzdC0-75" value="&lt;font style=&quot;font-size: 9px;&quot;&gt;undoIO&lt;/font&gt;&lt;div&gt;&lt;font style=&quot;font-size: 9px;&quot;&gt;&lt;span style=&quot;font-size: 7px;&quot;&gt;FormatManager fm(inj)&lt;/span&gt;&lt;/font&gt;&lt;/div&gt;" style="rounded=0;whiteSpace=wrap;html=1;" parent="Geku6nf0btogOaxhjyzA-1" vertex="1">
          <mxGeometry x="320" y="110" width="80" height="32.5" as="geometry" />
        </mxCell>
        <mxCell id="yFrAFG5AL53cfiDgzdC0-76" value="" style="endArrow=classic;html=1;rounded=0;" parent="Geku6nf0btogOaxhjyzA-1" source="yFrAFG5AL53cfiDgzdC0-75" target="yFrAFG5AL53cfiDgzdC0-8" edge="1">
          <mxGeometry width="50" height="50" relative="1" as="geometry">
            <mxPoint x="340" y="210" as="sourcePoint" />
            <mxPoint x="390" y="160" as="targetPoint" />
          </mxGeometry>
        </mxCell>
        <mxCell id="yFrAFG5AL53cfiDgzdC0-77" value="&lt;font style=&quot;font-size: 9px;&quot;&gt;unloadDocumentIO&lt;/font&gt;" style="rounded=0;whiteSpace=wrap;html=1;" parent="Geku6nf0btogOaxhjyzA-1" vertex="1">
          <mxGeometry x="320" y="80" width="90" height="20" as="geometry" />
        </mxCell>
        <mxCell id="yFrAFG5AL53cfiDgzdC0-78" value="" style="endArrow=classic;html=1;rounded=0;" parent="Geku6nf0btogOaxhjyzA-1" source="yFrAFG5AL53cfiDgzdC0-77" target="yFrAFG5AL53cfiDgzdC0-8" edge="1">
          <mxGeometry width="50" height="50" relative="1" as="geometry">
            <mxPoint x="320" y="220" as="sourcePoint" />
            <mxPoint x="370" y="170" as="targetPoint" />
          </mxGeometry>
        </mxCell>
        <mxCell id="yFrAFG5AL53cfiDgzdC0-79" value="&lt;font style=&quot;font-size: 9px;&quot;&gt;setActiveDocumentIO&lt;/font&gt;" style="rounded=0;whiteSpace=wrap;html=1;" parent="Geku6nf0btogOaxhjyzA-1" vertex="1">
          <mxGeometry x="310" y="50" width="100" height="20" as="geometry" />
        </mxCell>
        <mxCell id="yFrAFG5AL53cfiDgzdC0-80" value="" style="endArrow=classic;html=1;rounded=0;" parent="Geku6nf0btogOaxhjyzA-1" source="yFrAFG5AL53cfiDgzdC0-79" target="yFrAFG5AL53cfiDgzdC0-8" edge="1">
          <mxGeometry width="50" height="50" relative="1" as="geometry">
            <mxPoint x="240" y="180" as="sourcePoint" />
            <mxPoint x="290" y="130" as="targetPoint" />
          </mxGeometry>
        </mxCell>
        <mxCell id="yFrAFG5AL53cfiDgzdC0-81" value="&lt;font style=&quot;font-size: 9px;&quot;&gt;setFormat&lt;/font&gt;&lt;div&gt;&lt;font style=&quot;font-size: 7px;&quot;&gt;IO(inj)&lt;/font&gt;&lt;/div&gt;&lt;div&gt;&lt;span style=&quot;background-color: transparent; color: light-dark(rgb(0, 0, 0), rgb(255, 255, 255));&quot;&gt;&lt;font style=&quot;font-size: 7px;&quot;&gt;FormatManager fm&lt;/font&gt;&lt;/span&gt;&lt;div&gt;&lt;font style=&quot;font-size: 7px;&quot;&gt;fm.setFormatter()&lt;/font&gt;&lt;/div&gt;&lt;/div&gt;" style="rounded=0;whiteSpace=wrap;html=1;" parent="Geku6nf0btogOaxhjyzA-1" vertex="1">
          <mxGeometry x="1480" y="395" width="100" height="60" as="geometry" />
        </mxCell>
        <mxCell id="yFrAFG5AL53cfiDgzdC0-82" value="&lt;font style=&quot;font-size: 9px;&quot;&gt;Formatter&lt;/font&gt;&lt;div&gt;&lt;font style=&quot;font-size: 7px;&quot;&gt;format(doc)&lt;/font&gt;&lt;/div&gt;" style="rounded=0;whiteSpace=wrap;html=1;" parent="Geku6nf0btogOaxhjyzA-1" vertex="1">
          <mxGeometry x="125" y="-380" width="90" height="40" as="geometry" />
        </mxCell>
        <mxCell id="yFrAFG5AL53cfiDgzdC0-83" value="&lt;font style=&quot;font-size: 9px;&quot;&gt;DirectFormatter&lt;/font&gt;&lt;div&gt;&lt;font style=&quot;font-size: 7px;&quot;&gt;format&lt;/font&gt;&lt;font style=&quot;font-size: 7px;&quot;&gt;()&lt;/font&gt;&lt;/div&gt;" style="rounded=0;whiteSpace=wrap;html=1;" parent="Geku6nf0btogOaxhjyzA-1" vertex="1">
          <mxGeometry x="10" y="-270" width="80" height="40" as="geometry" />
        </mxCell>
        <mxCell id="yFrAFG5AL53cfiDgzdC0-84" value="&lt;font style=&quot;font-size: 9px;&quot;&gt;WrapFormatter&lt;/font&gt;&lt;div&gt;&lt;font style=&quot;font-size: 7px;&quot;&gt;format()&lt;/font&gt;&lt;/div&gt;" style="rounded=0;whiteSpace=wrap;html=1;" parent="Geku6nf0btogOaxhjyzA-1" vertex="1">
          <mxGeometry x="125" y="-270" width="90" height="40" as="geometry" />
        </mxCell>
        <mxCell id="yFrAFG5AL53cfiDgzdC0-85" value="&lt;font style=&quot;font-size: 9px;&quot;&gt;CenterFormatter&lt;/font&gt;&lt;div&gt;&lt;font style=&quot;font-size: 7px;&quot;&gt;format()&lt;/font&gt;&lt;/div&gt;" style="rounded=0;whiteSpace=wrap;html=1;" parent="Geku6nf0btogOaxhjyzA-1" vertex="1">
          <mxGeometry x="255" y="-270" width="95" height="40" as="geometry" />
        </mxCell>
        <mxCell id="yFrAFG5AL53cfiDgzdC0-86" value="" style="endArrow=classic;html=1;rounded=0;" parent="Geku6nf0btogOaxhjyzA-1" source="yFrAFG5AL53cfiDgzdC0-83" target="yFrAFG5AL53cfiDgzdC0-82" edge="1">
          <mxGeometry width="50" height="50" relative="1" as="geometry">
            <mxPoint x="250" y="-50" as="sourcePoint" />
            <mxPoint x="240" y="-90" as="targetPoint" />
          </mxGeometry>
        </mxCell>
        <mxCell id="yFrAFG5AL53cfiDgzdC0-87" value="" style="endArrow=classic;html=1;rounded=0;" parent="Geku6nf0btogOaxhjyzA-1" source="yFrAFG5AL53cfiDgzdC0-84" target="yFrAFG5AL53cfiDgzdC0-82" edge="1">
          <mxGeometry width="50" height="50" relative="1" as="geometry">
            <mxPoint x="250" y="-50" as="sourcePoint" />
            <mxPoint x="300" y="-100" as="targetPoint" />
          </mxGeometry>
        </mxCell>
        <mxCell id="yFrAFG5AL53cfiDgzdC0-88" value="" style="endArrow=classic;html=1;rounded=0;" parent="Geku6nf0btogOaxhjyzA-1" source="yFrAFG5AL53cfiDgzdC0-85" target="yFrAFG5AL53cfiDgzdC0-82" edge="1">
          <mxGeometry width="50" height="50" relative="1" as="geometry">
            <mxPoint x="250" y="-50" as="sourcePoint" />
            <mxPoint x="300" y="-100" as="targetPoint" />
          </mxGeometry>
        </mxCell>
        <mxCell id="yFrAFG5AL53cfiDgzdC0-89" value="&lt;font style=&quot;font-size: 9px;&quot;&gt;FormatManager&lt;/font&gt;&lt;div&gt;&lt;font style=&quot;font-size: 7px;&quot;&gt;Formatter formatter&lt;/font&gt;&lt;/div&gt;&lt;div&gt;&lt;font style=&quot;font-size: 7px;&quot;&gt;setFormatter()(deletes current and creates new with the string passed)&lt;/font&gt;&lt;/div&gt;&lt;div&gt;&lt;font style=&quot;font-size: 7px;&quot;&gt;string getFormattedString(string toFormat)&lt;/font&gt;&lt;/div&gt;" style="rounded=0;whiteSpace=wrap;html=1;" parent="Geku6nf0btogOaxhjyzA-1" vertex="1">
          <mxGeometry x="56.25" y="-550" width="227.5" height="90" as="geometry" />
        </mxCell>
        <mxCell id="yFrAFG5AL53cfiDgzdC0-90" value="" style="endArrow=none;dashed=1;html=1;dashPattern=1 3;strokeWidth=2;rounded=0;" parent="Geku6nf0btogOaxhjyzA-1" source="yFrAFG5AL53cfiDgzdC0-82" target="yFrAFG5AL53cfiDgzdC0-89" edge="1">
          <mxGeometry width="50" height="50" relative="1" as="geometry">
            <mxPoint x="180" y="-420" as="sourcePoint" />
            <mxPoint x="230" y="-470" as="targetPoint" />
          </mxGeometry>
        </mxCell>
        <mxCell id="yFrAFG5AL53cfiDgzdC0-91" value="" style="endArrow=classic;html=1;rounded=0;" parent="Geku6nf0btogOaxhjyzA-1" source="yFrAFG5AL53cfiDgzdC0-81" target="yFrAFG5AL53cfiDgzdC0-0" edge="1">
          <mxGeometry width="50" height="50" relative="1" as="geometry">
            <mxPoint x="1200" y="490" as="sourcePoint" />
            <mxPoint x="1250" y="440" as="targetPoint" />
          </mxGeometry>
        </mxCell>
        <mxCell id="yFrAFG5AL53cfiDgzdC0-92" value="&lt;font style=&quot;font-size: 9px;&quot;&gt;addMacro&lt;/font&gt;&lt;div&gt;&lt;font style=&quot;font-size: 7px;&quot;&gt;IO(inj)&lt;/font&gt;&lt;/div&gt;&lt;div&gt;&lt;span style=&quot;font-size: 7px;&quot;&gt;MacroRegister(inj)&lt;/span&gt;&lt;/div&gt;&lt;div&gt;&lt;font style=&quot;font-size: 7px;&quot;&gt;MacroRegister.add()&lt;/font&gt;&lt;/div&gt;" style="rounded=0;whiteSpace=wrap;html=1;" parent="Geku6nf0btogOaxhjyzA-1" vertex="1">
          <mxGeometry x="1480" y="315" width="100" height="60" as="geometry" />
        </mxCell>
        <mxCell id="yFrAFG5AL53cfiDgzdC0-93" value="&lt;font style=&quot;font-size: 9px;&quot;&gt;MacroParser&lt;/font&gt;&lt;div&gt;&lt;font style=&quot;&quot;&gt;&lt;font style=&quot;font-size: 7px;&quot;&gt;filemanager(inj)&lt;/font&gt;&lt;br&gt;&lt;/font&gt;&lt;div&gt;&lt;font style=&quot;font-size: 7px;&quot;&gt;loadMacros()&lt;/font&gt;&lt;/div&gt;&lt;div&gt;&lt;font style=&quot;font-size: 7px;&quot;&gt;saveMacros()&lt;/font&gt;&lt;/div&gt;&lt;/div&gt;" style="rounded=0;whiteSpace=wrap;html=1;" parent="Geku6nf0btogOaxhjyzA-1" vertex="1">
          <mxGeometry x="858.75" y="-780" width="70" height="70" as="geometry" />
        </mxCell>
        <mxCell id="yFrAFG5AL53cfiDgzdC0-95" value="&lt;font style=&quot;font-size: 9px;&quot;&gt;MacroRegister&lt;/font&gt;&lt;div&gt;&lt;font style=&quot;font-size: 7px;&quot;&gt;MacroParser mp&lt;br&gt;&lt;/font&gt;&lt;div&gt;&lt;font style=&quot;font-size: 7px;&quot;&gt;list&amp;lt;Macro&amp;gt; loads from parser&lt;/font&gt;&lt;/div&gt;&lt;div&gt;&lt;font style=&quot;font-size: 7px;&quot;&gt;getMacros()&lt;/font&gt;&lt;/div&gt;&lt;/div&gt;&lt;div&gt;&lt;font style=&quot;font-size: 7px;&quot;&gt;getMacro(name)&lt;/font&gt;&lt;/div&gt;&lt;div&gt;&lt;font style=&quot;font-size: 7px;&quot;&gt;addMacro()&lt;/font&gt;&lt;/div&gt;&lt;div&gt;&lt;font style=&quot;font-size: 7px;&quot;&gt;RemoveMacro()&lt;/font&gt;&lt;/div&gt;&lt;div&gt;&lt;font style=&quot;font-size: 7px;&quot;&gt;update()&lt;/font&gt;&lt;/div&gt;" style="rounded=0;whiteSpace=wrap;html=1;" parent="Geku6nf0btogOaxhjyzA-1" vertex="1">
          <mxGeometry x="668.75" y="-802.5" width="110" height="115" as="geometry" />
        </mxCell>
        <mxCell id="yFrAFG5AL53cfiDgzdC0-96" value="" style="endArrow=none;dashed=1;html=1;dashPattern=1 3;strokeWidth=2;rounded=0;" parent="Geku6nf0btogOaxhjyzA-1" source="yFrAFG5AL53cfiDgzdC0-95" target="yFrAFG5AL53cfiDgzdC0-93" edge="1">
          <mxGeometry width="50" height="50" relative="1" as="geometry">
            <mxPoint x="858.75" y="-680" as="sourcePoint" />
            <mxPoint x="878.75" y="-730" as="targetPoint" />
          </mxGeometry>
        </mxCell>
        <mxCell id="yFrAFG5AL53cfiDgzdC0-97" value="&lt;font style=&quot;font-size: 9px;&quot;&gt;Macro&lt;/font&gt;&lt;div&gt;&lt;font style=&quot;font-size: 7px;&quot;&gt;list&amp;lt;Command&amp;gt;&lt;/font&gt;&lt;/div&gt;&lt;div&gt;&lt;font style=&quot;font-size: 7px;&quot;&gt;execute()&lt;/font&gt;&lt;/div&gt;" style="rounded=0;whiteSpace=wrap;html=1;" parent="Geku6nf0btogOaxhjyzA-1" vertex="1">
          <mxGeometry x="683.75" y="-930" width="80" height="50" as="geometry" />
        </mxCell>
        <mxCell id="yFrAFG5AL53cfiDgzdC0-98" value="" style="endArrow=none;dashed=1;html=1;dashPattern=1 3;strokeWidth=2;rounded=0;" parent="Geku6nf0btogOaxhjyzA-1" source="yFrAFG5AL53cfiDgzdC0-95" target="yFrAFG5AL53cfiDgzdC0-97" edge="1">
          <mxGeometry width="50" height="50" relative="1" as="geometry">
            <mxPoint x="738.75" y="-780" as="sourcePoint" />
            <mxPoint x="788.75" y="-830" as="targetPoint" />
          </mxGeometry>
        </mxCell>
        <mxCell id="yFrAFG5AL53cfiDgzdC0-99" value="" style="endArrow=classic;html=1;rounded=0;" parent="Geku6nf0btogOaxhjyzA-1" source="yFrAFG5AL53cfiDgzdC0-92" target="yFrAFG5AL53cfiDgzdC0-0" edge="1">
          <mxGeometry width="50" height="50" relative="1" as="geometry">
            <mxPoint x="1310" y="320" as="sourcePoint" />
            <mxPoint x="1360" y="270" as="targetPoint" />
          </mxGeometry>
        </mxCell>
        <mxCell id="yFrAFG5AL53cfiDgzdC0-100" value="&lt;font style=&quot;font-size: 9px;&quot;&gt;removeMacro&lt;/font&gt;&lt;div&gt;&lt;font style=&quot;font-size: 7px;&quot;&gt;IO(inj)&lt;/font&gt;&lt;/div&gt;&lt;div&gt;&lt;font style=&quot;font-size: 7px;&quot;&gt;MacroRegister(inj)&lt;/font&gt;&lt;/div&gt;&lt;div&gt;&lt;font style=&quot;font-size: 7px;&quot;&gt;MacroRegister.removeMacro&lt;/font&gt;&lt;/div&gt;" style="rounded=0;whiteSpace=wrap;html=1;" parent="Geku6nf0btogOaxhjyzA-1" vertex="1">
          <mxGeometry x="1470" y="240" width="100" height="60" as="geometry" />
        </mxCell>
        <mxCell id="yFrAFG5AL53cfiDgzdC0-101" value="" style="endArrow=classic;html=1;rounded=0;" parent="Geku6nf0btogOaxhjyzA-1" source="yFrAFG5AL53cfiDgzdC0-100" target="yFrAFG5AL53cfiDgzdC0-0" edge="1">
          <mxGeometry width="50" height="50" relative="1" as="geometry">
            <mxPoint x="1200" y="230" as="sourcePoint" />
            <mxPoint x="1250" y="180" as="targetPoint" />
          </mxGeometry>
        </mxCell>
        <mxCell id="yFrAFG5AL53cfiDgzdC0-102" value="&lt;font style=&quot;font-size: 9px;&quot;&gt;executeMacro&lt;/font&gt;&lt;div&gt;&lt;font style=&quot;font-size: 7px;&quot;&gt;IO(inj)&lt;/font&gt;&lt;/div&gt;&lt;div&gt;&lt;font style=&quot;font-size: 7px;&quot;&gt;MacroRegister(inj)&lt;/font&gt;&lt;/div&gt;&lt;div&gt;&lt;font style=&quot;font-size: 7px;&quot;&gt;MacroRegister.getMacro(name)&lt;/font&gt;&lt;/div&gt;&lt;div&gt;&lt;font style=&quot;font-size: 7px;&quot;&gt;macro.execute()&lt;/font&gt;&lt;/div&gt;" style="rounded=0;whiteSpace=wrap;html=1;" parent="Geku6nf0btogOaxhjyzA-1" vertex="1">
          <mxGeometry x="1430" y="145" width="110" height="80" as="geometry" />
        </mxCell>
        <mxCell id="yFrAFG5AL53cfiDgzdC0-103" value="" style="endArrow=classic;html=1;rounded=0;" parent="Geku6nf0btogOaxhjyzA-1" source="yFrAFG5AL53cfiDgzdC0-102" target="yFrAFG5AL53cfiDgzdC0-0" edge="1">
          <mxGeometry width="50" height="50" relative="1" as="geometry">
            <mxPoint x="1130" y="220" as="sourcePoint" />
            <mxPoint x="1180" y="170" as="targetPoint" />
          </mxGeometry>
        </mxCell>
        <mxCell id="yFrAFG5AL53cfiDgzdC0-104" value="&lt;font style=&quot;font-size: 9px;&quot;&gt;setFormatIO&lt;/font&gt;" style="rounded=0;whiteSpace=wrap;html=1;" parent="Geku6nf0btogOaxhjyzA-1" vertex="1">
          <mxGeometry x="300" y="-10" width="70" height="20" as="geometry" />
        </mxCell>
        <mxCell id="yFrAFG5AL53cfiDgzdC0-105" value="&lt;font style=&quot;font-size: 9px;&quot;&gt;removeMacroIO&lt;/font&gt;" style="rounded=0;whiteSpace=wrap;html=1;" parent="Geku6nf0btogOaxhjyzA-1" vertex="1">
          <mxGeometry x="262.5" y="-40" width="80" height="20" as="geometry" />
        </mxCell>
        <mxCell id="yFrAFG5AL53cfiDgzdC0-106" value="&lt;font style=&quot;font-size: 9px;&quot;&gt;addMacroIO&lt;/font&gt;" style="rounded=0;whiteSpace=wrap;html=1;" parent="Geku6nf0btogOaxhjyzA-1" vertex="1">
          <mxGeometry x="225" y="-70" width="65" height="20" as="geometry" />
        </mxCell>
        <mxCell id="yFrAFG5AL53cfiDgzdC0-107" value="&lt;font style=&quot;font-size: 9px;&quot;&gt;executeMacroIO&lt;/font&gt;" style="rounded=0;whiteSpace=wrap;html=1;" parent="Geku6nf0btogOaxhjyzA-1" vertex="1">
          <mxGeometry x="310" y="20" width="80" height="20" as="geometry" />
        </mxCell>
        <mxCell id="yFrAFG5AL53cfiDgzdC0-108" value="" style="endArrow=classic;html=1;rounded=0;" parent="Geku6nf0btogOaxhjyzA-1" source="yFrAFG5AL53cfiDgzdC0-106" target="yFrAFG5AL53cfiDgzdC0-8" edge="1">
          <mxGeometry width="50" height="50" relative="1" as="geometry">
            <mxPoint x="330" y="20" as="sourcePoint" />
            <mxPoint x="380" y="-30" as="targetPoint" />
          </mxGeometry>
        </mxCell>
        <mxCell id="yFrAFG5AL53cfiDgzdC0-109" value="" style="endArrow=classic;html=1;rounded=0;" parent="Geku6nf0btogOaxhjyzA-1" source="yFrAFG5AL53cfiDgzdC0-105" target="yFrAFG5AL53cfiDgzdC0-8" edge="1">
          <mxGeometry width="50" height="50" relative="1" as="geometry">
            <mxPoint x="330" y="20" as="sourcePoint" />
            <mxPoint x="380" y="-30" as="targetPoint" />
          </mxGeometry>
        </mxCell>
        <mxCell id="yFrAFG5AL53cfiDgzdC0-110" value="" style="endArrow=classic;html=1;rounded=0;" parent="Geku6nf0btogOaxhjyzA-1" source="yFrAFG5AL53cfiDgzdC0-104" target="yFrAFG5AL53cfiDgzdC0-8" edge="1">
          <mxGeometry width="50" height="50" relative="1" as="geometry">
            <mxPoint x="330" y="20" as="sourcePoint" />
            <mxPoint x="380" y="-30" as="targetPoint" />
          </mxGeometry>
        </mxCell>
        <mxCell id="yFrAFG5AL53cfiDgzdC0-111" value="" style="endArrow=classic;html=1;rounded=0;" parent="Geku6nf0btogOaxhjyzA-1" source="yFrAFG5AL53cfiDgzdC0-107" target="yFrAFG5AL53cfiDgzdC0-8" edge="1">
          <mxGeometry width="50" height="50" relative="1" as="geometry">
            <mxPoint x="330" y="20" as="sourcePoint" />
            <mxPoint x="380" y="-30" as="targetPoint" />
          </mxGeometry>
        </mxCell>
        <mxCell id="yFrAFG5AL53cfiDgzdC0-112" value="&lt;font style=&quot;font-size: 9px;&quot;&gt;ChangeLine&lt;/font&gt;&lt;div&gt;&lt;font style=&quot;font-size: 7px;&quot;&gt;activeDocument(inj)&lt;br&gt;&lt;/font&gt;&lt;div&gt;&lt;font style=&quot;font-size: 7px;&quot;&gt;IO(inj)&lt;/font&gt;&lt;/div&gt;&lt;div&gt;&lt;font style=&quot;font-size: 7px;&quot;&gt;doc.changeLine&lt;/font&gt;&lt;/div&gt;&lt;/div&gt;" style="rounded=0;whiteSpace=wrap;html=1;" parent="Geku6nf0btogOaxhjyzA-1" vertex="1">
          <mxGeometry x="590" y="267.5" width="90" height="65" as="geometry" />
        </mxCell>
        <mxCell id="yFrAFG5AL53cfiDgzdC0-113" value="&lt;font style=&quot;font-size: 9px;&quot;&gt;AddLine&lt;/font&gt;&lt;div&gt;&lt;font style=&quot;font-size: 7px;&quot;&gt;activeDocument(inj)&lt;/font&gt;&lt;/div&gt;&lt;div&gt;&lt;font style=&quot;font-size: 7px;&quot;&gt;IO(inj)&lt;/font&gt;&lt;/div&gt;&lt;div&gt;&lt;font style=&quot;font-size: 7px;&quot;&gt;doc.addLine()&lt;/font&gt;&lt;/div&gt;" style="rounded=0;whiteSpace=wrap;html=1;" parent="Geku6nf0btogOaxhjyzA-1" vertex="1">
          <mxGeometry x="620" y="192.5" width="90" height="65" as="geometry" />
        </mxCell>
        <mxCell id="yFrAFG5AL53cfiDgzdC0-114" value="&lt;font style=&quot;font-size: 9px;&quot;&gt;removeLine&lt;/font&gt;&lt;div&gt;&lt;font style=&quot;font-size: 7px;&quot;&gt;activeDocument(inj)&lt;/font&gt;&lt;/div&gt;&lt;div&gt;&lt;font style=&quot;font-size: 7px;&quot;&gt;IO(inj)&lt;/font&gt;&lt;/div&gt;&lt;div&gt;&lt;font style=&quot;font-size: 7px;&quot;&gt;doc.removeLine()&lt;/font&gt;&lt;/div&gt;" style="rounded=0;whiteSpace=wrap;html=1;" parent="Geku6nf0btogOaxhjyzA-1" vertex="1">
          <mxGeometry x="662.5" y="122.5" width="90" height="60" as="geometry" />
        </mxCell>
        <mxCell id="yFrAFG5AL53cfiDgzdC0-115" value="" style="endArrow=classic;html=1;rounded=0;" parent="Geku6nf0btogOaxhjyzA-1" source="yFrAFG5AL53cfiDgzdC0-112" target="yFrAFG5AL53cfiDgzdC0-0" edge="1">
          <mxGeometry width="50" height="50" relative="1" as="geometry">
            <mxPoint x="720" y="310" as="sourcePoint" />
            <mxPoint x="770" y="260" as="targetPoint" />
          </mxGeometry>
        </mxCell>
        <mxCell id="yFrAFG5AL53cfiDgzdC0-116" value="" style="endArrow=classic;html=1;rounded=0;" parent="Geku6nf0btogOaxhjyzA-1" source="yFrAFG5AL53cfiDgzdC0-113" target="yFrAFG5AL53cfiDgzdC0-0" edge="1">
          <mxGeometry width="50" height="50" relative="1" as="geometry">
            <mxPoint x="720" y="310" as="sourcePoint" />
            <mxPoint x="770" y="260" as="targetPoint" />
          </mxGeometry>
        </mxCell>
        <mxCell id="yFrAFG5AL53cfiDgzdC0-117" value="" style="endArrow=classic;html=1;rounded=0;" parent="Geku6nf0btogOaxhjyzA-1" source="yFrAFG5AL53cfiDgzdC0-114" target="yFrAFG5AL53cfiDgzdC0-0" edge="1">
          <mxGeometry width="50" height="50" relative="1" as="geometry">
            <mxPoint x="720" y="310" as="sourcePoint" />
            <mxPoint x="770" y="260" as="targetPoint" />
          </mxGeometry>
        </mxCell>
        <mxCell id="yFrAFG5AL53cfiDgzdC0-118" value="&lt;font style=&quot;font-size: 9px;&quot;&gt;ChangeLineIO&lt;/font&gt;&lt;div&gt;&lt;font style=&quot;font-size: 7px;&quot;&gt;FormatManager fm(inj)&lt;/font&gt;&lt;/div&gt;" style="rounded=0;whiteSpace=wrap;html=1;" parent="Geku6nf0btogOaxhjyzA-1" vertex="1">
          <mxGeometry x="-73.75" y="15" width="83.75" height="30" as="geometry" />
        </mxCell>
        <mxCell id="yFrAFG5AL53cfiDgzdC0-119" value="&lt;font style=&quot;font-size: 9px;&quot;&gt;AddLineIO&lt;/font&gt;&lt;div&gt;&lt;font style=&quot;font-size: 7px;&quot;&gt;FormatManager fm(inj)&lt;/font&gt;&lt;/div&gt;" style="rounded=0;whiteSpace=wrap;html=1;" parent="Geku6nf0btogOaxhjyzA-1" vertex="1">
          <mxGeometry x="-60" y="-20" width="80" height="30" as="geometry" />
        </mxCell>
        <mxCell id="yFrAFG5AL53cfiDgzdC0-120" value="&lt;font style=&quot;font-size: 9px;&quot;&gt;removeLineIO&lt;/font&gt;&lt;div&gt;&lt;font style=&quot;font-size: 7px;&quot;&gt;FormatManager(inj)&lt;/font&gt;&lt;/div&gt;" style="rounded=0;whiteSpace=wrap;html=1;" parent="Geku6nf0btogOaxhjyzA-1" vertex="1">
          <mxGeometry x="-20" y="-60" width="80" height="30" as="geometry" />
        </mxCell>
        <mxCell id="yFrAFG5AL53cfiDgzdC0-121" value="" style="endArrow=classic;html=1;rounded=0;" parent="Geku6nf0btogOaxhjyzA-1" source="yFrAFG5AL53cfiDgzdC0-120" target="yFrAFG5AL53cfiDgzdC0-8" edge="1">
          <mxGeometry width="50" height="50" relative="1" as="geometry">
            <mxPoint x="250" y="70" as="sourcePoint" />
            <mxPoint x="300" y="20" as="targetPoint" />
          </mxGeometry>
        </mxCell>
        <mxCell id="yFrAFG5AL53cfiDgzdC0-122" value="" style="endArrow=classic;html=1;rounded=0;" parent="Geku6nf0btogOaxhjyzA-1" source="yFrAFG5AL53cfiDgzdC0-119" target="yFrAFG5AL53cfiDgzdC0-8" edge="1">
          <mxGeometry width="50" height="50" relative="1" as="geometry">
            <mxPoint x="250" y="70" as="sourcePoint" />
            <mxPoint x="300" y="20" as="targetPoint" />
          </mxGeometry>
        </mxCell>
        <mxCell id="yFrAFG5AL53cfiDgzdC0-123" value="" style="endArrow=classic;html=1;rounded=0;" parent="Geku6nf0btogOaxhjyzA-1" source="yFrAFG5AL53cfiDgzdC0-118" target="yFrAFG5AL53cfiDgzdC0-8" edge="1">
          <mxGeometry width="50" height="50" relative="1" as="geometry">
            <mxPoint x="250" y="70" as="sourcePoint" />
            <mxPoint x="300" y="20" as="targetPoint" />
          </mxGeometry>
        </mxCell>
        <mxCell id="yFrAFG5AL53cfiDgzdC0-124" value="&lt;font style=&quot;font-size: 9px;&quot;&gt;Save&lt;/font&gt;&lt;div&gt;&lt;font style=&quot;&quot;&gt;&lt;font style=&quot;font-size: 7px;&quot;&gt;IO(inj)&lt;/font&gt;&lt;br&gt;&lt;/font&gt;&lt;div&gt;&lt;font style=&quot;font-size: 7px;&quot;&gt;activeDocument(inj) ad&lt;/font&gt;&lt;/div&gt;&lt;div&gt;&lt;font style=&quot;font-size: 7px;&quot;&gt;documentRegister dr&lt;/font&gt;&lt;/div&gt;&lt;div&gt;&lt;font style=&quot;font-size: 7px;&quot;&gt;pass ad.doc to dr.save()&lt;/font&gt;&lt;/div&gt;&lt;/div&gt;" style="rounded=0;whiteSpace=wrap;html=1;" parent="Geku6nf0btogOaxhjyzA-1" vertex="1">
          <mxGeometry x="710" y="40" width="90" height="70" as="geometry" />
        </mxCell>
        <mxCell id="yFrAFG5AL53cfiDgzdC0-125" value="" style="endArrow=classic;html=1;rounded=0;" parent="Geku6nf0btogOaxhjyzA-1" source="yFrAFG5AL53cfiDgzdC0-124" target="yFrAFG5AL53cfiDgzdC0-0" edge="1">
          <mxGeometry width="50" height="50" relative="1" as="geometry">
            <mxPoint x="810" y="-130" as="sourcePoint" />
            <mxPoint x="860" y="-180" as="targetPoint" />
          </mxGeometry>
        </mxCell>
        <mxCell id="yFrAFG5AL53cfiDgzdC0-126" value="&lt;font style=&quot;font-size: 9px;&quot;&gt;SaveAs&lt;/font&gt;&lt;div&gt;&lt;font style=&quot;font-size: 8px;&quot;&gt;activeDocument(inj) ad&lt;/font&gt;&lt;/div&gt;&lt;div&gt;&lt;font style=&quot;font-size: 8px;&quot;&gt;IO(inj)&lt;/font&gt;&lt;/div&gt;&lt;div&gt;&lt;font style=&quot;font-size: 8px;&quot;&gt;documentRegister dr&lt;/font&gt;&lt;/div&gt;&lt;div&gt;&lt;font style=&quot;font-size: 8px;&quot;&gt;pass ad.doc to dr.saveAs()&lt;/font&gt;&lt;/div&gt;" style="rounded=0;whiteSpace=wrap;html=1;" parent="Geku6nf0btogOaxhjyzA-1" vertex="1">
          <mxGeometry x="810" y="10" width="102.5" height="78.75" as="geometry" />
        </mxCell>
        <mxCell id="yFrAFG5AL53cfiDgzdC0-127" value="" style="endArrow=classic;html=1;rounded=0;fontSize=12;startSize=8;endSize=8;curved=1;" parent="Geku6nf0btogOaxhjyzA-1" source="yFrAFG5AL53cfiDgzdC0-126" target="yFrAFG5AL53cfiDgzdC0-0" edge="1">
          <mxGeometry width="50" height="50" relative="1" as="geometry">
            <mxPoint x="930" y="190" as="sourcePoint" />
            <mxPoint x="980" y="140" as="targetPoint" />
          </mxGeometry>
        </mxCell>
        <mxCell id="yFrAFG5AL53cfiDgzdC0-128" value="&lt;font style=&quot;font-size: 9px;&quot;&gt;saveIO&lt;/font&gt;" style="rounded=0;whiteSpace=wrap;html=1;" parent="Geku6nf0btogOaxhjyzA-1" vertex="1">
          <mxGeometry x="25" y="-90" width="50" height="20" as="geometry" />
        </mxCell>
        <mxCell id="yFrAFG5AL53cfiDgzdC0-129" value="&lt;font style=&quot;font-size: 9px;&quot;&gt;saveAsIO&lt;/font&gt;" style="rounded=0;whiteSpace=wrap;html=1;" parent="Geku6nf0btogOaxhjyzA-1" vertex="1">
          <mxGeometry x="50" y="-120" width="60" height="20" as="geometry" />
        </mxCell>
        <mxCell id="yFrAFG5AL53cfiDgzdC0-130" value="" style="endArrow=classic;html=1;rounded=0;fontSize=12;startSize=8;endSize=8;curved=1;" parent="Geku6nf0btogOaxhjyzA-1" source="yFrAFG5AL53cfiDgzdC0-128" target="yFrAFG5AL53cfiDgzdC0-8" edge="1">
          <mxGeometry width="50" height="50" relative="1" as="geometry">
            <mxPoint x="240" y="80" as="sourcePoint" />
            <mxPoint x="290" y="30" as="targetPoint" />
          </mxGeometry>
        </mxCell>
        <mxCell id="yFrAFG5AL53cfiDgzdC0-131" value="" style="endArrow=classic;html=1;rounded=0;fontSize=12;startSize=8;endSize=8;curved=1;" parent="Geku6nf0btogOaxhjyzA-1" source="yFrAFG5AL53cfiDgzdC0-129" target="yFrAFG5AL53cfiDgzdC0-8" edge="1">
          <mxGeometry width="50" height="50" relative="1" as="geometry">
            <mxPoint x="240" y="80" as="sourcePoint" />
            <mxPoint x="290" y="30" as="targetPoint" />
          </mxGeometry>
        </mxCell>
        <mxCell id="yFrAFG5AL53cfiDgzdC0-132" value="&lt;font style=&quot;font-size: 9px;&quot;&gt;listLoadedDocuments&lt;/font&gt;&lt;div&gt;&lt;font style=&quot;&quot;&gt;&lt;font style=&quot;font-size: 7px;&quot;&gt;IO(inj)&lt;/font&gt;&lt;br&gt;&lt;/font&gt;&lt;div&gt;&lt;font style=&quot;font-size: 7px;&quot;&gt;documentRgister(inj) dr&lt;/font&gt;&lt;/div&gt;&lt;div&gt;&lt;font style=&quot;font-size: 7px;&quot;&gt;dr.getDocuments()&lt;/font&gt;&lt;/div&gt;&lt;/div&gt;" style="rounded=0;whiteSpace=wrap;html=1;" parent="Geku6nf0btogOaxhjyzA-1" vertex="1">
          <mxGeometry x="1381.25" y="62.5" width="130" height="60" as="geometry" />
        </mxCell>
        <mxCell id="yFrAFG5AL53cfiDgzdC0-133" value="" style="endArrow=classic;html=1;rounded=0;fontSize=12;startSize=8;endSize=8;curved=1;" parent="Geku6nf0btogOaxhjyzA-1" source="yFrAFG5AL53cfiDgzdC0-132" target="yFrAFG5AL53cfiDgzdC0-0" edge="1">
          <mxGeometry width="50" height="50" relative="1" as="geometry">
            <mxPoint x="1160" y="50" as="sourcePoint" />
            <mxPoint x="1210" as="targetPoint" />
          </mxGeometry>
        </mxCell>
        <mxCell id="yFrAFG5AL53cfiDgzdC0-134" value="&lt;span style=&quot;font-size: 9px;&quot;&gt;listLoadedDocumentsIO&lt;/span&gt;" style="rounded=0;whiteSpace=wrap;html=1;" parent="Geku6nf0btogOaxhjyzA-1" vertex="1">
          <mxGeometry x="160" y="-100" width="110" height="20" as="geometry" />
        </mxCell>
        <mxCell id="yFrAFG5AL53cfiDgzdC0-135" value="" style="endArrow=classic;html=1;rounded=0;fontSize=12;startSize=8;endSize=8;curved=1;" parent="Geku6nf0btogOaxhjyzA-1" source="yFrAFG5AL53cfiDgzdC0-134" target="yFrAFG5AL53cfiDgzdC0-8" edge="1">
          <mxGeometry width="50" height="50" relative="1" as="geometry">
            <mxPoint x="290" y="70" as="sourcePoint" />
            <mxPoint x="340" y="20" as="targetPoint" />
          </mxGeometry>
        </mxCell>
        <mxCell id="yFrAFG5AL53cfiDgzdC0-136" value="&lt;font style=&quot;font-size: 9px;&quot;&gt;exit&lt;/font&gt;&lt;div&gt;&lt;font style=&quot;font-size: 7px;&quot;&gt;documentRegister(inj) dr&lt;/font&gt;&lt;/div&gt;&lt;div&gt;&lt;font style=&quot;font-size: 7px;&quot;&gt;dr.getDocuments()&lt;/font&gt;&lt;/div&gt;&lt;div&gt;&lt;font style=&quot;font-size: 7px;&quot;&gt;ask for every changed document for save or saveAs&lt;/font&gt;&lt;/div&gt;" style="rounded=0;whiteSpace=wrap;html=1;" parent="Geku6nf0btogOaxhjyzA-1" vertex="1">
          <mxGeometry x="1300" y="-15" width="170" height="60" as="geometry" />
        </mxCell>
        <mxCell id="yFrAFG5AL53cfiDgzdC0-137" value="" style="endArrow=classic;html=1;rounded=0;fontSize=12;startSize=8;endSize=8;curved=1;" parent="Geku6nf0btogOaxhjyzA-1" source="yFrAFG5AL53cfiDgzdC0-136" target="yFrAFG5AL53cfiDgzdC0-0" edge="1">
          <mxGeometry width="50" height="50" relative="1" as="geometry">
            <mxPoint x="1150" y="50" as="sourcePoint" />
            <mxPoint x="1200" as="targetPoint" />
          </mxGeometry>
        </mxCell>
        <mxCell id="yFrAFG5AL53cfiDgzdC0-138" value="exitIO" style="rounded=0;whiteSpace=wrap;html=1;" parent="Geku6nf0btogOaxhjyzA-1" vertex="1">
          <mxGeometry x="125" y="-130" width="60" height="20" as="geometry" />
        </mxCell>
        <mxCell id="yFrAFG5AL53cfiDgzdC0-139" value="" style="endArrow=classic;html=1;rounded=0;fontSize=12;startSize=8;endSize=8;curved=1;" parent="Geku6nf0btogOaxhjyzA-1" source="yFrAFG5AL53cfiDgzdC0-138" target="yFrAFG5AL53cfiDgzdC0-8" edge="1">
          <mxGeometry width="50" height="50" relative="1" as="geometry">
            <mxPoint x="40" y="-30" as="sourcePoint" />
            <mxPoint x="90" y="-80" as="targetPoint" />
          </mxGeometry>
        </mxCell>
        <mxCell id="yFrAFG5AL53cfiDgzdC0-140" value="&lt;font style=&quot;font-size: 9px;&quot;&gt;textProcessor&lt;/font&gt;&lt;div&gt;&lt;font style=&quot;font-size: 7px;&quot;&gt;commandManager(inj)&lt;/font&gt;&lt;/div&gt;&lt;div&gt;&lt;span style=&quot;font-size: 7px;&quot;&gt;start()&lt;/span&gt;&lt;/div&gt;&lt;div&gt;&lt;span style=&quot;font-size: 7px;&quot;&gt;initalize commands and all injects&lt;/span&gt;&lt;/div&gt;&lt;div&gt;&lt;span style=&quot;font-size: 7px;&quot;&gt;handle exceptions&lt;/span&gt;&lt;/div&gt;" style="rounded=0;whiteSpace=wrap;html=1;" parent="Geku6nf0btogOaxhjyzA-1" vertex="1">
          <mxGeometry x="1020.63" y="-130" width="118.75" height="70" as="geometry" />
        </mxCell>
        <mxCell id="yFrAFG5AL53cfiDgzdC0-141" value="" style="endArrow=none;dashed=1;html=1;dashPattern=1 3;strokeWidth=2;rounded=0;fontSize=12;startSize=8;endSize=8;curved=1;" parent="Geku6nf0btogOaxhjyzA-1" source="yFrAFG5AL53cfiDgzdC0-66" target="yFrAFG5AL53cfiDgzdC0-140" edge="1">
          <mxGeometry width="50" height="50" relative="1" as="geometry">
            <mxPoint x="1070" y="150" as="sourcePoint" />
            <mxPoint x="1120" y="100" as="targetPoint" />
          </mxGeometry>
        </mxCell>
        <mxCell id="yFrAFG5AL53cfiDgzdC0-142" value="&lt;font style=&quot;font-size: 9px;&quot;&gt;DefaultLine&lt;/font&gt;" style="rounded=0;whiteSpace=wrap;html=1;" parent="Geku6nf0btogOaxhjyzA-1" vertex="1">
          <mxGeometry x="528.75" y="-220" width="50" height="50" as="geometry" />
        </mxCell>
        <mxCell id="yFrAFG5AL53cfiDgzdC0-143" value="&lt;font style=&quot;font-size: 9px;&quot;&gt;NumberedLine&lt;/font&gt;&lt;div&gt;&lt;font style=&quot;font-size: 7px;&quot;&gt;isMovableInSort ret false&lt;/font&gt;&lt;/div&gt;" style="rounded=0;whiteSpace=wrap;html=1;" parent="Geku6nf0btogOaxhjyzA-1" vertex="1">
          <mxGeometry x="587.5" y="-220" width="90" height="50" as="geometry" />
        </mxCell>
        <mxCell id="yFrAFG5AL53cfiDgzdC0-145" value="&lt;font style=&quot;font-size: 9px;&quot;&gt;NumericLine&lt;/font&gt;&lt;div&gt;&lt;font style=&quot;font-size: 7px;&quot;&gt;operator&amp;lt; overload&lt;/font&gt;&lt;/div&gt;" style="rounded=0;whiteSpace=wrap;html=1;" parent="Geku6nf0btogOaxhjyzA-1" vertex="1">
          <mxGeometry x="688.75" y="-220" width="80" height="50" as="geometry" />
        </mxCell>
        <mxCell id="yFrAFG5AL53cfiDgzdC0-146" value="&lt;font style=&quot;font-size: 9px;&quot;&gt;QuotedLine&lt;/font&gt;&lt;div&gt;&lt;font style=&quot;font-size: 7px;&quot;&gt;toUpper override&lt;/font&gt;&lt;/div&gt;&lt;div&gt;&lt;font style=&quot;font-size: 7px;&quot;&gt;toLower override&lt;/font&gt;&lt;/div&gt;" style="rounded=0;whiteSpace=wrap;html=1;" parent="Geku6nf0btogOaxhjyzA-1" vertex="1">
          <mxGeometry x="448.75" y="-220" width="70" height="50" as="geometry" />
        </mxCell>
        <mxCell id="yFrAFG5AL53cfiDgzdC0-148" value="" style="endArrow=classic;html=1;rounded=0;" parent="Geku6nf0btogOaxhjyzA-1" source="yFrAFG5AL53cfiDgzdC0-142" target="yFrAFG5AL53cfiDgzdC0-62" edge="1">
          <mxGeometry width="50" height="50" relative="1" as="geometry">
            <mxPoint x="580" y="-280" as="sourcePoint" />
            <mxPoint x="630" y="-330" as="targetPoint" />
          </mxGeometry>
        </mxCell>
        <mxCell id="yFrAFG5AL53cfiDgzdC0-149" value="" style="endArrow=classic;html=1;rounded=0;" parent="Geku6nf0btogOaxhjyzA-1" source="yFrAFG5AL53cfiDgzdC0-146" target="yFrAFG5AL53cfiDgzdC0-62" edge="1">
          <mxGeometry width="50" height="50" relative="1" as="geometry">
            <mxPoint x="580" y="-280" as="sourcePoint" />
            <mxPoint x="630" y="-330" as="targetPoint" />
          </mxGeometry>
        </mxCell>
        <mxCell id="yFrAFG5AL53cfiDgzdC0-154" value="" style="endArrow=classic;html=1;rounded=0;" parent="Geku6nf0btogOaxhjyzA-1" source="yFrAFG5AL53cfiDgzdC0-143" target="yFrAFG5AL53cfiDgzdC0-62" edge="1">
          <mxGeometry width="50" height="50" relative="1" as="geometry">
            <mxPoint x="710" y="-270" as="sourcePoint" />
            <mxPoint x="760" y="-320" as="targetPoint" />
          </mxGeometry>
        </mxCell>
        <mxCell id="yFrAFG5AL53cfiDgzdC0-155" value="" style="endArrow=classic;html=1;rounded=0;" parent="Geku6nf0btogOaxhjyzA-1" source="yFrAFG5AL53cfiDgzdC0-145" target="yFrAFG5AL53cfiDgzdC0-62" edge="1">
          <mxGeometry width="50" height="50" relative="1" as="geometry">
            <mxPoint x="710" y="-270" as="sourcePoint" />
            <mxPoint x="760" y="-320" as="targetPoint" />
          </mxGeometry>
        </mxCell>
        <mxCell id="UaLT4CsGdG0I3POak6DL-0" value="&lt;font style=&quot;font-size: 9px;&quot;&gt;LineCreator&lt;/font&gt;&lt;div&gt;&lt;font style=&quot;font-size: 7px;&quot;&gt;singleton&lt;/font&gt;&lt;/div&gt;&lt;div&gt;&lt;font style=&quot;font-size: 7px;&quot;&gt;createLine()&lt;/font&gt;&lt;/div&gt;" style="rounded=0;whiteSpace=wrap;html=1;" parent="Geku6nf0btogOaxhjyzA-1" vertex="1">
          <mxGeometry x="735" y="-365" width="75" height="50" as="geometry" />
        </mxCell>
        <mxCell id="UaLT4CsGdG0I3POak6DL-1" value="" style="endArrow=none;dashed=1;html=1;dashPattern=1 3;strokeWidth=2;rounded=0;" parent="Geku6nf0btogOaxhjyzA-1" source="yFrAFG5AL53cfiDgzdC0-62" target="UaLT4CsGdG0I3POak6DL-0" edge="1">
          <mxGeometry width="50" height="50" relative="1" as="geometry">
            <mxPoint x="620" y="-270" as="sourcePoint" />
            <mxPoint x="670" y="-320" as="targetPoint" />
          </mxGeometry>
        </mxCell>
        <mxCell id="E-YBqti-v6_v41Hpv8sm-2" value="" style="endArrow=none;dashed=1;html=1;dashPattern=1 3;strokeWidth=2;rounded=0;" edge="1" parent="Geku6nf0btogOaxhjyzA-1" source="yFrAFG5AL53cfiDgzdC0-93" target="yFrAFG5AL53cfiDgzdC0-52">
          <mxGeometry width="50" height="50" relative="1" as="geometry">
            <mxPoint x="820" y="-640" as="sourcePoint" />
            <mxPoint x="870" y="-690" as="targetPoint" />
          </mxGeometry>
        </mxCell>
        <mxCell id="E-YBqti-v6_v41Hpv8sm-3" value="" style="endArrow=none;dashed=1;html=1;dashPattern=1 3;strokeWidth=2;rounded=0;" edge="1" parent="Geku6nf0btogOaxhjyzA-1" source="yFrAFG5AL53cfiDgzdC0-53" target="yFrAFG5AL53cfiDgzdC0-52">
          <mxGeometry width="50" height="50" relative="1" as="geometry">
            <mxPoint x="820" y="-640" as="sourcePoint" />
            <mxPoint x="870" y="-690" as="targetPoint" />
          </mxGeometry>
        </mxCell>
        <mxCell id="E-YBqti-v6_v41Hpv8sm-4" value="" style="endArrow=none;dashed=1;html=1;dashPattern=1 3;strokeWidth=2;rounded=0;" edge="1" parent="Geku6nf0btogOaxhjyzA-1" source="yFrAFG5AL53cfiDgzdC0-28" target="yFrAFG5AL53cfiDgzdC0-52">
          <mxGeometry width="50" height="50" relative="1" as="geometry">
            <mxPoint x="820" y="-640" as="sourcePoint" />
            <mxPoint x="870" y="-690" as="targetPoint" />
          </mxGeometry>
        </mxCell>
      </root>
    </mxGraphModel>
  </diagram>
</mxfile>
